<mxfile host="app.diagrams.net" modified="2024-06-27T13:59:39.834Z" agent="Mozilla/5.0 (Windows NT 10.0; Win64; x64) AppleWebKit/537.36 (KHTML, like Gecko) Chrome/126.0.0.0 Safari/537.36" etag="L3hIpR323nuaQ-T7QEZ1" version="24.6.3" type="github">
  <diagram name="Page-1" id="LG2aejodbbx1wu4bJTzq">
    <mxGraphModel dx="5058" dy="481" grid="1" gridSize="10" guides="1" tooltips="1" connect="1" arrows="1" fold="1" page="1" pageScale="1" pageWidth="850" pageHeight="1100" math="0" shadow="0">
      <root>
        <mxCell id="0" />
        <mxCell id="1" parent="0" />
        <mxCell id="z8JezbtAQ2rlnTOmX2S_-20" style="edgeStyle=orthogonalEdgeStyle;rounded=0;orthogonalLoop=1;jettySize=auto;html=1;" parent="1" source="z8JezbtAQ2rlnTOmX2S_-1" target="z8JezbtAQ2rlnTOmX2S_-21" edge="1">
          <mxGeometry relative="1" as="geometry">
            <mxPoint x="-100" y="120" as="targetPoint" />
          </mxGeometry>
        </mxCell>
        <mxCell id="z8JezbtAQ2rlnTOmX2S_-1" value="Secondary Course&lt;div&gt;30 Min&lt;/div&gt;" style="rounded=0;whiteSpace=wrap;html=1;" parent="1" vertex="1">
          <mxGeometry x="-160" y="40" width="120" height="60" as="geometry" />
        </mxCell>
        <mxCell id="z8JezbtAQ2rlnTOmX2S_-16" style="edgeStyle=orthogonalEdgeStyle;rounded=0;orthogonalLoop=1;jettySize=auto;html=1;" parent="1" source="z8JezbtAQ2rlnTOmX2S_-2" target="z8JezbtAQ2rlnTOmX2S_-17" edge="1">
          <mxGeometry relative="1" as="geometry">
            <mxPoint x="-740" y="130" as="targetPoint" />
          </mxGeometry>
        </mxCell>
        <mxCell id="z8JezbtAQ2rlnTOmX2S_-2" value="Main Project&lt;div&gt;4 Hours&lt;/div&gt;" style="rounded=0;whiteSpace=wrap;html=1;" parent="1" vertex="1">
          <mxGeometry x="-800" y="40" width="120" height="60" as="geometry" />
        </mxCell>
        <mxCell id="z8JezbtAQ2rlnTOmX2S_-10" style="edgeStyle=orthogonalEdgeStyle;rounded=0;orthogonalLoop=1;jettySize=auto;html=1;" parent="1" source="z8JezbtAQ2rlnTOmX2S_-3" target="z8JezbtAQ2rlnTOmX2S_-11" edge="1">
          <mxGeometry relative="1" as="geometry">
            <mxPoint x="-250" y="130" as="targetPoint" />
          </mxGeometry>
        </mxCell>
        <mxCell id="z8JezbtAQ2rlnTOmX2S_-3" value="Main Course&lt;div&gt;45 Min&lt;/div&gt;" style="rounded=0;whiteSpace=wrap;html=1;" parent="1" vertex="1">
          <mxGeometry x="-310" y="40" width="120" height="60" as="geometry" />
        </mxCell>
        <mxCell id="z8JezbtAQ2rlnTOmX2S_-24" style="edgeStyle=orthogonalEdgeStyle;rounded=0;orthogonalLoop=1;jettySize=auto;html=1;" parent="1" source="z8JezbtAQ2rlnTOmX2S_-4" target="z8JezbtAQ2rlnTOmX2S_-25" edge="1">
          <mxGeometry relative="1" as="geometry">
            <mxPoint x="-570" y="130" as="targetPoint" />
          </mxGeometry>
        </mxCell>
        <mxCell id="z8JezbtAQ2rlnTOmX2S_-4" value="Improvement&lt;div&gt;Project&lt;/div&gt;&lt;div&gt;1.5 Hours&lt;/div&gt;" style="rounded=0;whiteSpace=wrap;html=1;" parent="1" vertex="1">
          <mxGeometry x="-630" y="40" width="120" height="60" as="geometry" />
        </mxCell>
        <mxCell id="z8JezbtAQ2rlnTOmX2S_-5" value="UI" style="rounded=0;whiteSpace=wrap;html=1;" parent="1" vertex="1">
          <mxGeometry x="500" y="50" width="120" height="60" as="geometry" />
        </mxCell>
        <mxCell id="z8JezbtAQ2rlnTOmX2S_-6" value="Tools" style="rounded=0;whiteSpace=wrap;html=1;" parent="1" vertex="1">
          <mxGeometry x="660" y="50" width="120" height="60" as="geometry" />
        </mxCell>
        <mxCell id="z8JezbtAQ2rlnTOmX2S_-30" style="edgeStyle=orthogonalEdgeStyle;rounded=0;orthogonalLoop=1;jettySize=auto;html=1;" parent="1" source="z8JezbtAQ2rlnTOmX2S_-7" target="z8JezbtAQ2rlnTOmX2S_-31" edge="1">
          <mxGeometry relative="1" as="geometry">
            <mxPoint x="-400" y="130" as="targetPoint" />
          </mxGeometry>
        </mxCell>
        <mxCell id="z8JezbtAQ2rlnTOmX2S_-7" value="With Ai&lt;div&gt;45 min&lt;/div&gt;" style="rounded=0;whiteSpace=wrap;html=1;" parent="1" vertex="1">
          <mxGeometry x="-460" y="40" width="120" height="60" as="geometry" />
        </mxCell>
        <mxCell id="z8JezbtAQ2rlnTOmX2S_-26" style="edgeStyle=orthogonalEdgeStyle;rounded=0;orthogonalLoop=1;jettySize=auto;html=1;" parent="1" source="z8JezbtAQ2rlnTOmX2S_-8" target="z8JezbtAQ2rlnTOmX2S_-27" edge="1">
          <mxGeometry relative="1" as="geometry">
            <mxPoint x="240" y="130" as="targetPoint" />
          </mxGeometry>
        </mxCell>
        <mxCell id="z8JezbtAQ2rlnTOmX2S_-8" value="Reading" style="rounded=0;whiteSpace=wrap;html=1;fillColor=#6a00ff;fontColor=#ffffff;strokeColor=#3700CC;" parent="1" vertex="1">
          <mxGeometry x="180" y="40" width="120" height="60" as="geometry" />
        </mxCell>
        <mxCell id="z8JezbtAQ2rlnTOmX2S_-28" style="edgeStyle=orthogonalEdgeStyle;rounded=0;orthogonalLoop=1;jettySize=auto;html=1;" parent="1" source="z8JezbtAQ2rlnTOmX2S_-9" target="z8JezbtAQ2rlnTOmX2S_-29" edge="1">
          <mxGeometry relative="1" as="geometry">
            <mxPoint x="80" y="130" as="targetPoint" />
          </mxGeometry>
        </mxCell>
        <mxCell id="z8JezbtAQ2rlnTOmX2S_-9" value="Language&lt;div&gt;30 Min&lt;/div&gt;" style="rounded=0;whiteSpace=wrap;html=1;" parent="1" vertex="1">
          <mxGeometry x="20" y="40" width="120" height="60" as="geometry" />
        </mxCell>
        <mxCell id="z8JezbtAQ2rlnTOmX2S_-14" style="edgeStyle=orthogonalEdgeStyle;rounded=0;orthogonalLoop=1;jettySize=auto;html=1;" parent="1" source="z8JezbtAQ2rlnTOmX2S_-11" target="z8JezbtAQ2rlnTOmX2S_-15" edge="1">
          <mxGeometry relative="1" as="geometry">
            <mxPoint x="-250" y="220" as="targetPoint" />
            <Array as="points">
              <mxPoint x="-270" y="350" />
            </Array>
          </mxGeometry>
        </mxCell>
        <mxCell id="z8JezbtAQ2rlnTOmX2S_-11" value="JS" style="rounded=0;whiteSpace=wrap;html=1;fillColor=#d5e8d4;strokeColor=#82b366;" parent="1" vertex="1">
          <mxGeometry x="-310" y="120" width="120" height="60" as="geometry" />
        </mxCell>
        <mxCell id="KyUrAidOEwDMEyV5-HBK-1" style="edgeStyle=orthogonalEdgeStyle;rounded=0;orthogonalLoop=1;jettySize=auto;html=1;" parent="1" source="z8JezbtAQ2rlnTOmX2S_-15" target="KyUrAidOEwDMEyV5-HBK-2" edge="1">
          <mxGeometry relative="1" as="geometry">
            <mxPoint x="-250" y="300" as="targetPoint" />
            <Array as="points">
              <mxPoint x="-730" y="420" />
              <mxPoint x="-250" y="420" />
            </Array>
          </mxGeometry>
        </mxCell>
        <mxCell id="z8JezbtAQ2rlnTOmX2S_-15" value="React" style="rounded=0;whiteSpace=wrap;html=1;" parent="1" vertex="1">
          <mxGeometry x="-790" y="320" width="120" height="60" as="geometry" />
        </mxCell>
        <mxCell id="z8JezbtAQ2rlnTOmX2S_-18" style="edgeStyle=orthogonalEdgeStyle;rounded=0;orthogonalLoop=1;jettySize=auto;html=1;" parent="1" source="z8JezbtAQ2rlnTOmX2S_-17" target="z8JezbtAQ2rlnTOmX2S_-19" edge="1">
          <mxGeometry relative="1" as="geometry">
            <mxPoint x="-740" y="210" as="targetPoint" />
            <Array as="points">
              <mxPoint x="-740" y="230" />
              <mxPoint x="-570" y="230" />
            </Array>
          </mxGeometry>
        </mxCell>
        <mxCell id="z8JezbtAQ2rlnTOmX2S_-17" value="CMA" style="rounded=0;whiteSpace=wrap;html=1;fillColor=#d5e8d4;strokeColor=#82b366;" parent="1" vertex="1">
          <mxGeometry x="-800" y="120" width="120" height="60" as="geometry" />
        </mxCell>
        <mxCell id="z8JezbtAQ2rlnTOmX2S_-36" style="edgeStyle=orthogonalEdgeStyle;rounded=0;orthogonalLoop=1;jettySize=auto;html=1;" parent="1" source="z8JezbtAQ2rlnTOmX2S_-19" target="z8JezbtAQ2rlnTOmX2S_-37" edge="1">
          <mxGeometry relative="1" as="geometry">
            <mxPoint x="-740" y="310" as="targetPoint" />
          </mxGeometry>
        </mxCell>
        <mxCell id="z8JezbtAQ2rlnTOmX2S_-19" value="Menu Project" style="rounded=0;whiteSpace=wrap;html=1;" parent="1" vertex="1">
          <mxGeometry x="-630" y="470" width="120" height="60" as="geometry" />
        </mxCell>
        <mxCell id="z8JezbtAQ2rlnTOmX2S_-22" style="edgeStyle=orthogonalEdgeStyle;rounded=0;orthogonalLoop=1;jettySize=auto;html=1;" parent="1" source="z8JezbtAQ2rlnTOmX2S_-21" target="z8JezbtAQ2rlnTOmX2S_-23" edge="1">
          <mxGeometry relative="1" as="geometry">
            <mxPoint x="-100" y="210" as="targetPoint" />
          </mxGeometry>
        </mxCell>
        <mxCell id="z8JezbtAQ2rlnTOmX2S_-21" value="GIT" style="rounded=0;whiteSpace=wrap;html=1;fillColor=#d5e8d4;strokeColor=#82b366;" parent="1" vertex="1">
          <mxGeometry x="-160" y="120" width="120" height="60" as="geometry" />
        </mxCell>
        <mxCell id="z8JezbtAQ2rlnTOmX2S_-23" value="Unit Test" style="rounded=0;whiteSpace=wrap;html=1;" parent="1" vertex="1">
          <mxGeometry x="-160" y="210" width="120" height="60" as="geometry" />
        </mxCell>
        <mxCell id="z8JezbtAQ2rlnTOmX2S_-25" value="CMA" style="rounded=0;whiteSpace=wrap;html=1;fillColor=#d5e8d4;strokeColor=#82b366;" parent="1" vertex="1">
          <mxGeometry x="-630" y="120" width="120" height="60" as="geometry" />
        </mxCell>
        <mxCell id="z8JezbtAQ2rlnTOmX2S_-34" style="edgeStyle=orthogonalEdgeStyle;rounded=0;orthogonalLoop=1;jettySize=auto;html=1;" parent="1" source="z8JezbtAQ2rlnTOmX2S_-27" target="z8JezbtAQ2rlnTOmX2S_-35" edge="1">
          <mxGeometry relative="1" as="geometry">
            <mxPoint x="240" y="210" as="targetPoint" />
          </mxGeometry>
        </mxCell>
        <mxCell id="z8JezbtAQ2rlnTOmX2S_-27" value="Clean ARCH" style="rounded=0;whiteSpace=wrap;html=1;" parent="1" vertex="1">
          <mxGeometry x="180" y="120" width="120" height="60" as="geometry" />
        </mxCell>
        <mxCell id="z8JezbtAQ2rlnTOmX2S_-29" value="English Words 1" style="rounded=0;whiteSpace=wrap;html=1;" parent="1" vertex="1">
          <mxGeometry x="20" y="120" width="120" height="60" as="geometry" />
        </mxCell>
        <mxCell id="z8JezbtAQ2rlnTOmX2S_-32" style="edgeStyle=orthogonalEdgeStyle;rounded=0;orthogonalLoop=1;jettySize=auto;html=1;" parent="1" source="z8JezbtAQ2rlnTOmX2S_-31" target="z8JezbtAQ2rlnTOmX2S_-33" edge="1">
          <mxGeometry relative="1" as="geometry">
            <mxPoint x="-400" y="210" as="targetPoint" />
          </mxGeometry>
        </mxCell>
        <mxCell id="z8JezbtAQ2rlnTOmX2S_-31" value="BT5" style="rounded=0;whiteSpace=wrap;html=1;fillColor=#d5e8d4;strokeColor=#82b366;" parent="1" vertex="1">
          <mxGeometry x="-460" y="120" width="120" height="60" as="geometry" />
        </mxCell>
        <mxCell id="z8JezbtAQ2rlnTOmX2S_-33" value="Define The Problem" style="rounded=0;whiteSpace=wrap;html=1;" parent="1" vertex="1">
          <mxGeometry x="-460" y="200" width="120" height="60" as="geometry" />
        </mxCell>
        <mxCell id="z8JezbtAQ2rlnTOmX2S_-35" value="Clean Coder" style="rounded=0;whiteSpace=wrap;html=1;" parent="1" vertex="1">
          <mxGeometry x="180" y="200" width="120" height="60" as="geometry" />
        </mxCell>
        <mxCell id="z8JezbtAQ2rlnTOmX2S_-37" value="TT" style="rounded=0;whiteSpace=wrap;html=1;" parent="1" vertex="1">
          <mxGeometry x="-630" y="570" width="120" height="60" as="geometry" />
        </mxCell>
        <mxCell id="KyUrAidOEwDMEyV5-HBK-3" style="edgeStyle=orthogonalEdgeStyle;rounded=0;orthogonalLoop=1;jettySize=auto;html=1;" parent="1" source="KyUrAidOEwDMEyV5-HBK-2" target="KyUrAidOEwDMEyV5-HBK-4" edge="1">
          <mxGeometry relative="1" as="geometry">
            <mxPoint x="-250" y="750" as="targetPoint" />
          </mxGeometry>
        </mxCell>
        <mxCell id="KyUrAidOEwDMEyV5-HBK-2" value="TypeScript" style="rounded=0;whiteSpace=wrap;html=1;" parent="1" vertex="1">
          <mxGeometry x="-310" y="650" width="120" height="60" as="geometry" />
        </mxCell>
        <mxCell id="KyUrAidOEwDMEyV5-HBK-4" value="Node.js" style="rounded=0;whiteSpace=wrap;html=1;" parent="1" vertex="1">
          <mxGeometry x="-310" y="740" width="120" height="60" as="geometry" />
        </mxCell>
        <mxCell id="KyUrAidOEwDMEyV5-HBK-6" style="edgeStyle=orthogonalEdgeStyle;rounded=0;orthogonalLoop=1;jettySize=auto;html=1;" parent="1" source="KyUrAidOEwDMEyV5-HBK-5" target="KyUrAidOEwDMEyV5-HBK-7" edge="1">
          <mxGeometry relative="1" as="geometry">
            <mxPoint x="990" y="150" as="targetPoint" />
          </mxGeometry>
        </mxCell>
        <mxCell id="KyUrAidOEwDMEyV5-HBK-5" value="Improvement CMA" style="rounded=0;whiteSpace=wrap;html=1;" parent="1" vertex="1">
          <mxGeometry x="930" y="50" width="120" height="60" as="geometry" />
        </mxCell>
        <mxCell id="KyUrAidOEwDMEyV5-HBK-7" value="HOC?" style="rounded=0;whiteSpace=wrap;html=1;fillColor=#d5e8d4;strokeColor=#82b366;" parent="1" vertex="1">
          <mxGeometry x="930" y="120" width="120" height="60" as="geometry" />
        </mxCell>
        <mxCell id="KyUrAidOEwDMEyV5-HBK-9" style="edgeStyle=orthogonalEdgeStyle;rounded=0;orthogonalLoop=1;jettySize=auto;html=1;" parent="1" source="KyUrAidOEwDMEyV5-HBK-8" target="KyUrAidOEwDMEyV5-HBK-10" edge="1">
          <mxGeometry relative="1" as="geometry">
            <mxPoint x="990" y="290" as="targetPoint" />
          </mxGeometry>
        </mxCell>
        <mxCell id="KyUrAidOEwDMEyV5-HBK-8" value="Portals" style="rounded=0;whiteSpace=wrap;html=1;fillColor=#d5e8d4;strokeColor=#82b366;" parent="1" vertex="1">
          <mxGeometry x="930" y="200" width="120" height="60" as="geometry" />
        </mxCell>
        <mxCell id="KyUrAidOEwDMEyV5-HBK-11" style="edgeStyle=orthogonalEdgeStyle;rounded=0;orthogonalLoop=1;jettySize=auto;html=1;" parent="1" source="KyUrAidOEwDMEyV5-HBK-10" target="KyUrAidOEwDMEyV5-HBK-12" edge="1">
          <mxGeometry relative="1" as="geometry">
            <mxPoint x="990" y="380" as="targetPoint" />
          </mxGeometry>
        </mxCell>
        <mxCell id="KyUrAidOEwDMEyV5-HBK-10" value="Error Boundary" style="rounded=0;whiteSpace=wrap;html=1;fillColor=#d5e8d4;strokeColor=#82b366;" parent="1" vertex="1">
          <mxGeometry x="930" y="290" width="120" height="60" as="geometry" />
        </mxCell>
        <mxCell id="KyUrAidOEwDMEyV5-HBK-13" style="edgeStyle=orthogonalEdgeStyle;rounded=0;orthogonalLoop=1;jettySize=auto;html=1;" parent="1" source="KyUrAidOEwDMEyV5-HBK-12" target="KyUrAidOEwDMEyV5-HBK-14" edge="1">
          <mxGeometry relative="1" as="geometry">
            <mxPoint x="990" y="470" as="targetPoint" />
          </mxGeometry>
        </mxCell>
        <mxCell id="KyUrAidOEwDMEyV5-HBK-12" value="Code Splitting" style="rounded=0;whiteSpace=wrap;html=1;fillColor=#d5e8d4;strokeColor=#82b366;" parent="1" vertex="1">
          <mxGeometry x="930" y="380" width="120" height="60" as="geometry" />
        </mxCell>
        <mxCell id="KyUrAidOEwDMEyV5-HBK-15" style="edgeStyle=orthogonalEdgeStyle;rounded=0;orthogonalLoop=1;jettySize=auto;html=1;" parent="1" source="KyUrAidOEwDMEyV5-HBK-14" target="KyUrAidOEwDMEyV5-HBK-16" edge="1">
          <mxGeometry relative="1" as="geometry">
            <mxPoint x="990" y="550" as="targetPoint" />
          </mxGeometry>
        </mxCell>
        <mxCell id="KyUrAidOEwDMEyV5-HBK-14" value="Lazy Load" style="rounded=0;whiteSpace=wrap;html=1;fillColor=#d5e8d4;strokeColor=#82b366;" parent="1" vertex="1">
          <mxGeometry x="930" y="460" width="120" height="60" as="geometry" />
        </mxCell>
        <mxCell id="KyUrAidOEwDMEyV5-HBK-17" style="edgeStyle=orthogonalEdgeStyle;rounded=0;orthogonalLoop=1;jettySize=auto;html=1;" parent="1" source="KyUrAidOEwDMEyV5-HBK-16" target="KyUrAidOEwDMEyV5-HBK-18" edge="1">
          <mxGeometry relative="1" as="geometry">
            <mxPoint x="990" y="630" as="targetPoint" />
          </mxGeometry>
        </mxCell>
        <mxCell id="KyUrAidOEwDMEyV5-HBK-16" value="React Helmet" style="rounded=0;whiteSpace=wrap;html=1;fillColor=#d5e8d4;strokeColor=#82b366;" parent="1" vertex="1">
          <mxGeometry x="930" y="540" width="120" height="60" as="geometry" />
        </mxCell>
        <mxCell id="KyUrAidOEwDMEyV5-HBK-19" style="edgeStyle=orthogonalEdgeStyle;rounded=0;orthogonalLoop=1;jettySize=auto;html=1;" parent="1" source="KyUrAidOEwDMEyV5-HBK-18" target="KyUrAidOEwDMEyV5-HBK-20" edge="1">
          <mxGeometry relative="1" as="geometry">
            <mxPoint x="990" y="710" as="targetPoint" />
          </mxGeometry>
        </mxCell>
        <mxCell id="KyUrAidOEwDMEyV5-HBK-18" value="Edit Contact Refactor" style="rounded=0;whiteSpace=wrap;html=1;fillColor=#d5e8d4;strokeColor=#82b366;" parent="1" vertex="1">
          <mxGeometry x="930" y="620" width="120" height="60" as="geometry" />
        </mxCell>
        <mxCell id="KyUrAidOEwDMEyV5-HBK-21" style="edgeStyle=orthogonalEdgeStyle;rounded=0;orthogonalLoop=1;jettySize=auto;html=1;" parent="1" source="KyUrAidOEwDMEyV5-HBK-20" target="KyUrAidOEwDMEyV5-HBK-22" edge="1">
          <mxGeometry relative="1" as="geometry">
            <mxPoint x="990" y="800" as="targetPoint" />
          </mxGeometry>
        </mxCell>
        <mxCell id="KyUrAidOEwDMEyV5-HBK-20" value="109 Course" style="rounded=0;whiteSpace=wrap;html=1;fillColor=#d5e8d4;strokeColor=#82b366;" parent="1" vertex="1">
          <mxGeometry x="930" y="700" width="120" height="60" as="geometry" />
        </mxCell>
        <mxCell id="KyUrAidOEwDMEyV5-HBK-23" style="edgeStyle=orthogonalEdgeStyle;rounded=0;orthogonalLoop=1;jettySize=auto;html=1;" parent="1" source="KyUrAidOEwDMEyV5-HBK-22" target="KyUrAidOEwDMEyV5-HBK-24" edge="1">
          <mxGeometry relative="1" as="geometry">
            <mxPoint x="990" y="870" as="targetPoint" />
          </mxGeometry>
        </mxCell>
        <mxCell id="KyUrAidOEwDMEyV5-HBK-22" value="ImmerJS" style="rounded=0;whiteSpace=wrap;html=1;fillColor=#d5e8d4;strokeColor=#82b366;" parent="1" vertex="1">
          <mxGeometry x="930" y="780" width="120" height="60" as="geometry" />
        </mxCell>
        <mxCell id="KyUrAidOEwDMEyV5-HBK-25" style="edgeStyle=orthogonalEdgeStyle;rounded=0;orthogonalLoop=1;jettySize=auto;html=1;" parent="1" source="KyUrAidOEwDMEyV5-HBK-24" target="KyUrAidOEwDMEyV5-HBK-26" edge="1">
          <mxGeometry relative="1" as="geometry">
            <mxPoint x="990" y="950" as="targetPoint" />
          </mxGeometry>
        </mxCell>
        <mxCell id="KyUrAidOEwDMEyV5-HBK-24" value="Throttle" style="rounded=0;whiteSpace=wrap;html=1;fillColor=#d5e8d4;strokeColor=#82b366;" parent="1" vertex="1">
          <mxGeometry x="930" y="860" width="120" height="60" as="geometry" />
        </mxCell>
        <mxCell id="KyUrAidOEwDMEyV5-HBK-27" style="edgeStyle=orthogonalEdgeStyle;rounded=0;orthogonalLoop=1;jettySize=auto;html=1;" parent="1" source="KyUrAidOEwDMEyV5-HBK-26" target="KyUrAidOEwDMEyV5-HBK-28" edge="1">
          <mxGeometry relative="1" as="geometry">
            <mxPoint x="990" y="1040" as="targetPoint" />
          </mxGeometry>
        </mxCell>
        <mxCell id="KyUrAidOEwDMEyV5-HBK-26" value="UseRef" style="rounded=0;whiteSpace=wrap;html=1;fillColor=#d5e8d4;strokeColor=#82b366;" parent="1" vertex="1">
          <mxGeometry x="930" y="940" width="120" height="60" as="geometry" />
        </mxCell>
        <mxCell id="KyUrAidOEwDMEyV5-HBK-29" style="edgeStyle=orthogonalEdgeStyle;rounded=0;orthogonalLoop=1;jettySize=auto;html=1;" parent="1" source="KyUrAidOEwDMEyV5-HBK-28" target="KyUrAidOEwDMEyV5-HBK-30" edge="1">
          <mxGeometry relative="1" as="geometry">
            <mxPoint x="990" y="1140" as="targetPoint" />
          </mxGeometry>
        </mxCell>
        <mxCell id="KyUrAidOEwDMEyV5-HBK-28" value="UseMemo" style="rounded=0;whiteSpace=wrap;html=1;fillColor=#d5e8d4;strokeColor=#82b366;" parent="1" vertex="1">
          <mxGeometry x="930" y="1040" width="120" height="60" as="geometry" />
        </mxCell>
        <mxCell id="KyUrAidOEwDMEyV5-HBK-31" style="edgeStyle=orthogonalEdgeStyle;rounded=0;orthogonalLoop=1;jettySize=auto;html=1;" parent="1" source="KyUrAidOEwDMEyV5-HBK-30" target="KyUrAidOEwDMEyV5-HBK-32" edge="1">
          <mxGeometry relative="1" as="geometry">
            <mxPoint x="990" y="1200" as="targetPoint" />
          </mxGeometry>
        </mxCell>
        <mxCell id="KyUrAidOEwDMEyV5-HBK-30" value="useCallbacks" style="rounded=0;whiteSpace=wrap;html=1;fillColor=#d5e8d4;strokeColor=#82b366;" parent="1" vertex="1">
          <mxGeometry x="930" y="1110" width="120" height="60" as="geometry" />
        </mxCell>
        <mxCell id="KyUrAidOEwDMEyV5-HBK-33" style="edgeStyle=orthogonalEdgeStyle;rounded=0;orthogonalLoop=1;jettySize=auto;html=1;" parent="1" source="KyUrAidOEwDMEyV5-HBK-32" target="KyUrAidOEwDMEyV5-HBK-34" edge="1">
          <mxGeometry relative="1" as="geometry">
            <mxPoint x="990" y="1280" as="targetPoint" />
          </mxGeometry>
        </mxCell>
        <mxCell id="KyUrAidOEwDMEyV5-HBK-32" value="useReducer" style="rounded=0;whiteSpace=wrap;html=1;fillColor=#d5e8d4;strokeColor=#82b366;" parent="1" vertex="1">
          <mxGeometry x="930" y="1190" width="120" height="60" as="geometry" />
        </mxCell>
        <mxCell id="KyUrAidOEwDMEyV5-HBK-35" style="edgeStyle=orthogonalEdgeStyle;rounded=0;orthogonalLoop=1;jettySize=auto;html=1;" parent="1" source="KyUrAidOEwDMEyV5-HBK-34" target="KyUrAidOEwDMEyV5-HBK-36" edge="1">
          <mxGeometry relative="1" as="geometry">
            <mxPoint x="990" y="1360" as="targetPoint" />
          </mxGeometry>
        </mxCell>
        <mxCell id="KyUrAidOEwDMEyV5-HBK-34" value="useLayoutEffect" style="rounded=0;whiteSpace=wrap;html=1;fillColor=#d5e8d4;strokeColor=#82b366;" parent="1" vertex="1">
          <mxGeometry x="930" y="1270" width="120" height="60" as="geometry" />
        </mxCell>
        <mxCell id="KyUrAidOEwDMEyV5-HBK-37" style="edgeStyle=orthogonalEdgeStyle;rounded=0;orthogonalLoop=1;jettySize=auto;html=1;" parent="1" source="KyUrAidOEwDMEyV5-HBK-36" target="KyUrAidOEwDMEyV5-HBK-38" edge="1">
          <mxGeometry relative="1" as="geometry">
            <mxPoint x="990" y="1450" as="targetPoint" />
          </mxGeometry>
        </mxCell>
        <mxCell id="KyUrAidOEwDMEyV5-HBK-36" value="useImperativeHendler" style="rounded=0;whiteSpace=wrap;html=1;fillColor=#d5e8d4;strokeColor=#82b366;" parent="1" vertex="1">
          <mxGeometry x="930" y="1350" width="120" height="60" as="geometry" />
        </mxCell>
        <mxCell id="KyUrAidOEwDMEyV5-HBK-39" style="edgeStyle=orthogonalEdgeStyle;rounded=0;orthogonalLoop=1;jettySize=auto;html=1;" parent="1" source="KyUrAidOEwDMEyV5-HBK-38" target="KyUrAidOEwDMEyV5-HBK-40" edge="1">
          <mxGeometry relative="1" as="geometry">
            <mxPoint x="990" y="1530" as="targetPoint" />
          </mxGeometry>
        </mxCell>
        <mxCell id="KyUrAidOEwDMEyV5-HBK-38" value="useDefferedValue" style="rounded=0;whiteSpace=wrap;html=1;fillColor=#d5e8d4;strokeColor=#82b366;" parent="1" vertex="1">
          <mxGeometry x="930" y="1430" width="120" height="60" as="geometry" />
        </mxCell>
        <mxCell id="KyUrAidOEwDMEyV5-HBK-41" style="edgeStyle=orthogonalEdgeStyle;rounded=0;orthogonalLoop=1;jettySize=auto;html=1;" parent="1" source="KyUrAidOEwDMEyV5-HBK-40" target="KyUrAidOEwDMEyV5-HBK-42" edge="1">
          <mxGeometry relative="1" as="geometry">
            <mxPoint x="990" y="1600" as="targetPoint" />
          </mxGeometry>
        </mxCell>
        <mxCell id="KyUrAidOEwDMEyV5-HBK-40" value="useTransition" style="rounded=0;whiteSpace=wrap;html=1;fillColor=#d5e8d4;strokeColor=#82b366;" parent="1" vertex="1">
          <mxGeometry x="930" y="1510" width="120" height="60" as="geometry" />
        </mxCell>
        <mxCell id="KyUrAidOEwDMEyV5-HBK-43" style="edgeStyle=orthogonalEdgeStyle;rounded=0;orthogonalLoop=1;jettySize=auto;html=1;" parent="1" source="KyUrAidOEwDMEyV5-HBK-42" target="KyUrAidOEwDMEyV5-HBK-44" edge="1">
          <mxGeometry relative="1" as="geometry">
            <mxPoint x="990" y="1680" as="targetPoint" />
          </mxGeometry>
        </mxCell>
        <mxCell id="KyUrAidOEwDMEyV5-HBK-42" value="Custom Hooks" style="rounded=0;whiteSpace=wrap;html=1;fillColor=#d5e8d4;strokeColor=#82b366;" parent="1" vertex="1">
          <mxGeometry x="930" y="1590" width="120" height="60" as="geometry" />
        </mxCell>
        <mxCell id="KyUrAidOEwDMEyV5-HBK-45" style="edgeStyle=orthogonalEdgeStyle;rounded=0;orthogonalLoop=1;jettySize=auto;html=1;" parent="1" source="KyUrAidOEwDMEyV5-HBK-44" target="KyUrAidOEwDMEyV5-HBK-46" edge="1">
          <mxGeometry relative="1" as="geometry">
            <mxPoint x="990" y="1760" as="targetPoint" />
          </mxGeometry>
        </mxCell>
        <mxCell id="KyUrAidOEwDMEyV5-HBK-44" value="useDebugValue" style="rounded=0;whiteSpace=wrap;html=1;fillColor=#d5e8d4;strokeColor=#82b366;" parent="1" vertex="1">
          <mxGeometry x="930" y="1670" width="120" height="60" as="geometry" />
        </mxCell>
        <mxCell id="KyUrAidOEwDMEyV5-HBK-47" style="edgeStyle=orthogonalEdgeStyle;rounded=0;orthogonalLoop=1;jettySize=auto;html=1;" parent="1" source="KyUrAidOEwDMEyV5-HBK-46" target="KyUrAidOEwDMEyV5-HBK-48" edge="1">
          <mxGeometry relative="1" as="geometry">
            <mxPoint x="990" y="1840" as="targetPoint" />
          </mxGeometry>
        </mxCell>
        <mxCell id="KyUrAidOEwDMEyV5-HBK-46" value="useId" style="rounded=0;whiteSpace=wrap;html=1;fillColor=#d5e8d4;strokeColor=#82b366;" parent="1" vertex="1">
          <mxGeometry x="930" y="1750" width="120" height="60" as="geometry" />
        </mxCell>
        <mxCell id="K-9rBzDbww7UCdtsAtUT-2" value="" style="edgeStyle=orthogonalEdgeStyle;rounded=0;orthogonalLoop=1;jettySize=auto;html=1;" parent="1" source="KyUrAidOEwDMEyV5-HBK-48" target="K-9rBzDbww7UCdtsAtUT-1" edge="1">
          <mxGeometry relative="1" as="geometry" />
        </mxCell>
        <mxCell id="KyUrAidOEwDMEyV5-HBK-48" value="Last Improvement?" style="rounded=0;whiteSpace=wrap;html=1;" parent="1" vertex="1">
          <mxGeometry x="930" y="1830" width="120" height="60" as="geometry" />
        </mxCell>
        <mxCell id="1rR0AmQa-GO-KA3AiBFW-1" style="edgeStyle=orthogonalEdgeStyle;rounded=0;orthogonalLoop=1;jettySize=auto;html=1;" parent="1" source="tOQx_NZllLaw5V6chD3Z-1" target="1rR0AmQa-GO-KA3AiBFW-2" edge="1">
          <mxGeometry relative="1" as="geometry">
            <mxPoint x="1150" y="140" as="targetPoint" />
          </mxGeometry>
        </mxCell>
        <mxCell id="tOQx_NZllLaw5V6chD3Z-1" value="Menu Project" style="rounded=0;whiteSpace=wrap;html=1;" parent="1" vertex="1">
          <mxGeometry x="1090" y="50" width="120" height="60" as="geometry" />
        </mxCell>
        <mxCell id="1rR0AmQa-GO-KA3AiBFW-3" style="edgeStyle=orthogonalEdgeStyle;rounded=0;orthogonalLoop=1;jettySize=auto;html=1;" parent="1" source="1rR0AmQa-GO-KA3AiBFW-2" target="1rR0AmQa-GO-KA3AiBFW-4" edge="1">
          <mxGeometry relative="1" as="geometry">
            <mxPoint x="1150" y="220" as="targetPoint" />
          </mxGeometry>
        </mxCell>
        <mxCell id="1rR0AmQa-GO-KA3AiBFW-11" style="edgeStyle=orthogonalEdgeStyle;rounded=0;orthogonalLoop=1;jettySize=auto;html=1;" parent="1" source="1rR0AmQa-GO-KA3AiBFW-2" target="1rR0AmQa-GO-KA3AiBFW-12" edge="1">
          <mxGeometry relative="1" as="geometry">
            <mxPoint x="1360" y="160" as="targetPoint" />
          </mxGeometry>
        </mxCell>
        <mxCell id="1rR0AmQa-GO-KA3AiBFW-2" value="First Configs" style="rounded=0;whiteSpace=wrap;html=1;fillColor=#d5e8d4;strokeColor=#82b366;" parent="1" vertex="1">
          <mxGeometry x="1090" y="130" width="120" height="60" as="geometry" />
        </mxCell>
        <mxCell id="1rR0AmQa-GO-KA3AiBFW-5" style="edgeStyle=orthogonalEdgeStyle;rounded=0;orthogonalLoop=1;jettySize=auto;html=1;fillColor=#d5e8d4;strokeColor=#82b366;" parent="1" source="1rR0AmQa-GO-KA3AiBFW-4" target="1rR0AmQa-GO-KA3AiBFW-6" edge="1">
          <mxGeometry relative="1" as="geometry">
            <mxPoint x="1150" y="320" as="targetPoint" />
          </mxGeometry>
        </mxCell>
        <mxCell id="1rR0AmQa-GO-KA3AiBFW-29" style="edgeStyle=orthogonalEdgeStyle;rounded=0;orthogonalLoop=1;jettySize=auto;html=1;fillColor=#d5e8d4;strokeColor=#82b366;" parent="1" source="1rR0AmQa-GO-KA3AiBFW-4" target="1rR0AmQa-GO-KA3AiBFW-17" edge="1">
          <mxGeometry relative="1" as="geometry" />
        </mxCell>
        <mxCell id="1rR0AmQa-GO-KA3AiBFW-4" value="First UI" style="rounded=0;whiteSpace=wrap;html=1;fillColor=#d5e8d4;strokeColor=#82b366;" parent="1" vertex="1">
          <mxGeometry x="1090" y="220" width="120" height="60" as="geometry" />
        </mxCell>
        <mxCell id="1rR0AmQa-GO-KA3AiBFW-7" style="edgeStyle=orthogonalEdgeStyle;rounded=0;orthogonalLoop=1;jettySize=auto;html=1;" parent="1" source="1rR0AmQa-GO-KA3AiBFW-6" target="1rR0AmQa-GO-KA3AiBFW-8" edge="1">
          <mxGeometry relative="1" as="geometry">
            <mxPoint x="1150" y="410" as="targetPoint" />
          </mxGeometry>
        </mxCell>
        <mxCell id="1rR0AmQa-GO-KA3AiBFW-64" style="edgeStyle=orthogonalEdgeStyle;rounded=0;orthogonalLoop=1;jettySize=auto;html=1;" parent="1" source="1rR0AmQa-GO-KA3AiBFW-6" target="1rR0AmQa-GO-KA3AiBFW-33" edge="1">
          <mxGeometry relative="1" as="geometry" />
        </mxCell>
        <mxCell id="1rR0AmQa-GO-KA3AiBFW-6" value="Splitting Components" style="rounded=0;whiteSpace=wrap;html=1;" parent="1" vertex="1">
          <mxGeometry x="1090" y="310" width="120" height="60" as="geometry" />
        </mxCell>
        <mxCell id="1rR0AmQa-GO-KA3AiBFW-9" style="edgeStyle=orthogonalEdgeStyle;rounded=0;orthogonalLoop=1;jettySize=auto;html=1;" parent="1" source="1rR0AmQa-GO-KA3AiBFW-8" target="1rR0AmQa-GO-KA3AiBFW-10" edge="1">
          <mxGeometry relative="1" as="geometry">
            <mxPoint x="1150" y="490" as="targetPoint" />
          </mxGeometry>
        </mxCell>
        <mxCell id="1rR0AmQa-GO-KA3AiBFW-66" style="edgeStyle=orthogonalEdgeStyle;rounded=0;orthogonalLoop=1;jettySize=auto;html=1;" parent="1" source="1rR0AmQa-GO-KA3AiBFW-8" target="1rR0AmQa-GO-KA3AiBFW-67" edge="1">
          <mxGeometry relative="1" as="geometry">
            <mxPoint x="1320" y="430" as="targetPoint" />
          </mxGeometry>
        </mxCell>
        <mxCell id="1rR0AmQa-GO-KA3AiBFW-8" value="Complete UI" style="rounded=0;whiteSpace=wrap;html=1;" parent="1" vertex="1">
          <mxGeometry x="1090" y="400" width="120" height="60" as="geometry" />
        </mxCell>
        <mxCell id="1rR0AmQa-GO-KA3AiBFW-68" style="edgeStyle=orthogonalEdgeStyle;rounded=0;orthogonalLoop=1;jettySize=auto;html=1;" parent="1" source="1rR0AmQa-GO-KA3AiBFW-10" target="1rR0AmQa-GO-KA3AiBFW-69" edge="1">
          <mxGeometry relative="1" as="geometry">
            <mxPoint x="1290" y="520" as="targetPoint" />
          </mxGeometry>
        </mxCell>
        <mxCell id="1rR0AmQa-GO-KA3AiBFW-10" value="Main Logic" style="rounded=0;whiteSpace=wrap;html=1;" parent="1" vertex="1">
          <mxGeometry x="1090" y="490" width="120" height="60" as="geometry" />
        </mxCell>
        <mxCell id="1rR0AmQa-GO-KA3AiBFW-20" style="edgeStyle=orthogonalEdgeStyle;rounded=0;orthogonalLoop=1;jettySize=auto;html=1;" parent="1" source="1rR0AmQa-GO-KA3AiBFW-12" edge="1">
          <mxGeometry relative="1" as="geometry">
            <mxPoint x="1470" y="160" as="targetPoint" />
          </mxGeometry>
        </mxCell>
        <mxCell id="1rR0AmQa-GO-KA3AiBFW-12" value="Understanding&lt;div&gt;The&amp;nbsp;&lt;/div&gt;&lt;div&gt;Expectations&lt;/div&gt;" style="rounded=0;whiteSpace=wrap;html=1;fillColor=#d5e8d4;strokeColor=#82b366;" parent="1" vertex="1">
          <mxGeometry x="1310" y="130" width="120" height="60" as="geometry" />
        </mxCell>
        <mxCell id="1rR0AmQa-GO-KA3AiBFW-13" value="UI for Primary Components" style="rounded=0;whiteSpace=wrap;html=1;fillColor=#d5e8d4;strokeColor=#82b366;" parent="1" vertex="1">
          <mxGeometry x="1650" y="220" width="120" height="60" as="geometry" />
        </mxCell>
        <mxCell id="1rR0AmQa-GO-KA3AiBFW-14" value="Basic Layout:&lt;div&gt;only First Page&lt;/div&gt;" style="rounded=0;whiteSpace=wrap;html=1;fillColor=#d5e8d4;strokeColor=#82b366;" parent="1" vertex="1">
          <mxGeometry x="1980" y="130" width="120" height="60" as="geometry" />
        </mxCell>
        <mxCell id="1rR0AmQa-GO-KA3AiBFW-31" style="edgeStyle=orthogonalEdgeStyle;rounded=0;orthogonalLoop=1;jettySize=auto;html=1;fillColor=#d5e8d4;strokeColor=#82b366;" parent="1" source="1rR0AmQa-GO-KA3AiBFW-15" target="1rR0AmQa-GO-KA3AiBFW-13" edge="1">
          <mxGeometry relative="1" as="geometry" />
        </mxCell>
        <mxCell id="1rR0AmQa-GO-KA3AiBFW-15" value="Create Primary Components" style="rounded=0;whiteSpace=wrap;html=1;fillColor=#d5e8d4;strokeColor=#82b366;" parent="1" vertex="1">
          <mxGeometry x="1480" y="220" width="120" height="60" as="geometry" />
        </mxCell>
        <mxCell id="1rR0AmQa-GO-KA3AiBFW-25" value="" style="edgeStyle=orthogonalEdgeStyle;rounded=0;orthogonalLoop=1;jettySize=auto;html=1;" parent="1" source="1rR0AmQa-GO-KA3AiBFW-16" target="1rR0AmQa-GO-KA3AiBFW-14" edge="1">
          <mxGeometry relative="1" as="geometry" />
        </mxCell>
        <mxCell id="1rR0AmQa-GO-KA3AiBFW-26" style="edgeStyle=orthogonalEdgeStyle;rounded=0;orthogonalLoop=1;jettySize=auto;html=1;" parent="1" source="1rR0AmQa-GO-KA3AiBFW-16" target="1rR0AmQa-GO-KA3AiBFW-14" edge="1">
          <mxGeometry relative="1" as="geometry" />
        </mxCell>
        <mxCell id="1rR0AmQa-GO-KA3AiBFW-16" value="Colors,FavIcon,CDN&lt;div&gt;, ...&lt;/div&gt;" style="rounded=0;whiteSpace=wrap;html=1;fillColor=#d5e8d4;strokeColor=#82b366;" parent="1" vertex="1">
          <mxGeometry x="1800" y="130" width="120" height="60" as="geometry" />
        </mxCell>
        <mxCell id="1rR0AmQa-GO-KA3AiBFW-30" style="edgeStyle=orthogonalEdgeStyle;rounded=0;orthogonalLoop=1;jettySize=auto;html=1;entryX=0;entryY=0.5;entryDx=0;entryDy=0;fillColor=#d5e8d4;strokeColor=#82b366;" parent="1" source="1rR0AmQa-GO-KA3AiBFW-17" target="1rR0AmQa-GO-KA3AiBFW-15" edge="1">
          <mxGeometry relative="1" as="geometry" />
        </mxCell>
        <mxCell id="1rR0AmQa-GO-KA3AiBFW-17" value="Basic UI for Main Page" style="rounded=0;whiteSpace=wrap;html=1;fillColor=#d5e8d4;strokeColor=#82b366;" parent="1" vertex="1">
          <mxGeometry x="1310" y="220" width="120" height="60" as="geometry" />
        </mxCell>
        <mxCell id="1rR0AmQa-GO-KA3AiBFW-22" style="edgeStyle=orthogonalEdgeStyle;rounded=0;orthogonalLoop=1;jettySize=auto;html=1;entryX=0;entryY=0.5;entryDx=0;entryDy=0;" parent="1" source="1rR0AmQa-GO-KA3AiBFW-18" target="1rR0AmQa-GO-KA3AiBFW-16" edge="1">
          <mxGeometry relative="1" as="geometry" />
        </mxCell>
        <mxCell id="1rR0AmQa-GO-KA3AiBFW-18" value="Install Dependencies" style="rounded=0;whiteSpace=wrap;html=1;fillColor=#d5e8d4;strokeColor=#82b366;" parent="1" vertex="1">
          <mxGeometry x="1640" y="130" width="120" height="60" as="geometry" />
        </mxCell>
        <mxCell id="1rR0AmQa-GO-KA3AiBFW-21" style="edgeStyle=orthogonalEdgeStyle;rounded=0;orthogonalLoop=1;jettySize=auto;html=1;" parent="1" source="1rR0AmQa-GO-KA3AiBFW-19" target="1rR0AmQa-GO-KA3AiBFW-18" edge="1">
          <mxGeometry relative="1" as="geometry" />
        </mxCell>
        <mxCell id="1rR0AmQa-GO-KA3AiBFW-19" value="Create Project" style="rounded=0;whiteSpace=wrap;html=1;fillColor=#d5e8d4;strokeColor=#82b366;" parent="1" vertex="1">
          <mxGeometry x="1470" y="130" width="120" height="60" as="geometry" />
        </mxCell>
        <mxCell id="1rR0AmQa-GO-KA3AiBFW-65" style="edgeStyle=orthogonalEdgeStyle;rounded=0;orthogonalLoop=1;jettySize=auto;html=1;entryX=0;entryY=0.5;entryDx=0;entryDy=0;" parent="1" source="1rR0AmQa-GO-KA3AiBFW-33" target="1rR0AmQa-GO-KA3AiBFW-61" edge="1">
          <mxGeometry relative="1" as="geometry" />
        </mxCell>
        <mxCell id="1rR0AmQa-GO-KA3AiBFW-33" value="Splitting All Created&lt;div&gt;Components&lt;/div&gt;" style="rounded=0;whiteSpace=wrap;html=1;" parent="1" vertex="1">
          <mxGeometry x="1290" y="320" width="120" height="60" as="geometry" />
        </mxCell>
        <mxCell id="1rR0AmQa-GO-KA3AiBFW-61" value="Logic Implementation" style="rounded=0;whiteSpace=wrap;html=1;" parent="1" vertex="1">
          <mxGeometry x="1480" y="320" width="120" height="60" as="geometry" />
        </mxCell>
        <mxCell id="1rR0AmQa-GO-KA3AiBFW-67" value="Complete UI for All Created Components" style="rounded=0;whiteSpace=wrap;html=1;" parent="1" vertex="1">
          <mxGeometry x="1690" y="400" width="120" height="60" as="geometry" />
        </mxCell>
        <mxCell id="1rR0AmQa-GO-KA3AiBFW-69" value="Complete Logic For All Created Components" style="rounded=0;whiteSpace=wrap;html=1;" parent="1" vertex="1">
          <mxGeometry x="1310" y="460" width="120" height="60" as="geometry" />
        </mxCell>
        <mxCell id="WAkmFwhDYBlKhz74opgl-15" style="edgeStyle=orthogonalEdgeStyle;rounded=0;orthogonalLoop=1;jettySize=auto;html=1;" parent="1" source="WAkmFwhDYBlKhz74opgl-16" target="WAkmFwhDYBlKhz74opgl-18" edge="1">
          <mxGeometry relative="1" as="geometry">
            <mxPoint x="-3220" y="1700" as="targetPoint" />
          </mxGeometry>
        </mxCell>
        <mxCell id="WAkmFwhDYBlKhz74opgl-16" value="What I Want To Do?" style="rounded=0;whiteSpace=wrap;html=1;" parent="1" vertex="1">
          <mxGeometry x="-3280" y="1610" width="120" height="60" as="geometry" />
        </mxCell>
        <mxCell id="WAkmFwhDYBlKhz74opgl-17" style="edgeStyle=orthogonalEdgeStyle;rounded=0;orthogonalLoop=1;jettySize=auto;html=1;" parent="1" source="WAkmFwhDYBlKhz74opgl-18" target="WAkmFwhDYBlKhz74opgl-20" edge="1">
          <mxGeometry relative="1" as="geometry">
            <mxPoint x="-3220" y="1800" as="targetPoint" />
          </mxGeometry>
        </mxCell>
        <mxCell id="WAkmFwhDYBlKhz74opgl-18" value="A React Application" style="rounded=0;whiteSpace=wrap;html=1;" parent="1" vertex="1">
          <mxGeometry x="-3280" y="1700" width="120" height="60" as="geometry" />
        </mxCell>
        <mxCell id="WAkmFwhDYBlKhz74opgl-19" style="edgeStyle=orthogonalEdgeStyle;rounded=0;orthogonalLoop=1;jettySize=auto;html=1;" parent="1" source="WAkmFwhDYBlKhz74opgl-20" target="WAkmFwhDYBlKhz74opgl-27" edge="1">
          <mxGeometry relative="1" as="geometry">
            <mxPoint x="-3110" y="1820" as="targetPoint" />
            <Array as="points">
              <mxPoint x="-3070" y="1820" />
            </Array>
          </mxGeometry>
        </mxCell>
        <mxCell id="WAkmFwhDYBlKhz74opgl-20" value="Full With:" style="rounded=0;whiteSpace=wrap;html=1;" parent="1" vertex="1">
          <mxGeometry x="-3280" y="1790" width="110" height="60" as="geometry" />
        </mxCell>
        <mxCell id="WAkmFwhDYBlKhz74opgl-21" value="Menu" style="rounded=0;whiteSpace=wrap;html=1;" parent="1" vertex="1">
          <mxGeometry x="-3300" y="1900" width="120" height="60" as="geometry" />
        </mxCell>
        <mxCell id="WAkmFwhDYBlKhz74opgl-22" style="edgeStyle=orthogonalEdgeStyle;rounded=0;orthogonalLoop=1;jettySize=auto;html=1;" parent="1" source="WAkmFwhDYBlKhz74opgl-27" target="WAkmFwhDYBlKhz74opgl-29" edge="1">
          <mxGeometry relative="1" as="geometry">
            <mxPoint x="-2980" y="1890" as="targetPoint" />
          </mxGeometry>
        </mxCell>
        <mxCell id="WAkmFwhDYBlKhz74opgl-23" style="edgeStyle=orthogonalEdgeStyle;rounded=0;orthogonalLoop=1;jettySize=auto;html=1;" parent="1" source="WAkmFwhDYBlKhz74opgl-27" target="WAkmFwhDYBlKhz74opgl-21" edge="1">
          <mxGeometry relative="1" as="geometry" />
        </mxCell>
        <mxCell id="WAkmFwhDYBlKhz74opgl-24" style="edgeStyle=orthogonalEdgeStyle;rounded=0;orthogonalLoop=1;jettySize=auto;html=1;entryX=0.5;entryY=0;entryDx=0;entryDy=0;" parent="1" source="WAkmFwhDYBlKhz74opgl-27" target="WAkmFwhDYBlKhz74opgl-33" edge="1">
          <mxGeometry relative="1" as="geometry" />
        </mxCell>
        <mxCell id="WAkmFwhDYBlKhz74opgl-25" style="edgeStyle=orthogonalEdgeStyle;rounded=0;orthogonalLoop=1;jettySize=auto;html=1;entryX=0;entryY=0.5;entryDx=0;entryDy=0;" parent="1" source="WAkmFwhDYBlKhz74opgl-27" target="WAkmFwhDYBlKhz74opgl-31" edge="1">
          <mxGeometry relative="1" as="geometry" />
        </mxCell>
        <mxCell id="WAkmFwhDYBlKhz74opgl-26" value="" style="edgeStyle=orthogonalEdgeStyle;rounded=0;orthogonalLoop=1;jettySize=auto;html=1;" parent="1" source="WAkmFwhDYBlKhz74opgl-27" target="WAkmFwhDYBlKhz74opgl-36" edge="1">
          <mxGeometry relative="1" as="geometry" />
        </mxCell>
        <mxCell id="WAkmFwhDYBlKhz74opgl-27" value="Main Page" style="rounded=0;whiteSpace=wrap;html=1;" parent="1" vertex="1">
          <mxGeometry x="-3130" y="1860" width="120" height="60" as="geometry" />
        </mxCell>
        <mxCell id="WAkmFwhDYBlKhz74opgl-28" style="edgeStyle=orthogonalEdgeStyle;rounded=0;orthogonalLoop=1;jettySize=auto;html=1;entryX=0.5;entryY=1;entryDx=0;entryDy=0;" parent="1" source="WAkmFwhDYBlKhz74opgl-29" target="WAkmFwhDYBlKhz74opgl-31" edge="1">
          <mxGeometry relative="1" as="geometry" />
        </mxCell>
        <mxCell id="WAkmFwhDYBlKhz74opgl-29" value="Gallery" style="rounded=0;whiteSpace=wrap;html=1;" parent="1" vertex="1">
          <mxGeometry x="-2880" y="1860" width="120" height="60" as="geometry" />
        </mxCell>
        <mxCell id="WAkmFwhDYBlKhz74opgl-30" value="Reservation" style="rounded=0;whiteSpace=wrap;html=1;" parent="1" vertex="1">
          <mxGeometry x="-2840" y="1970" width="120" height="60" as="geometry" />
        </mxCell>
        <mxCell id="WAkmFwhDYBlKhz74opgl-31" value="Slider In Front Page" style="rounded=0;whiteSpace=wrap;html=1;" parent="1" vertex="1">
          <mxGeometry x="-3010" y="1740" width="120" height="60" as="geometry" />
        </mxCell>
        <mxCell id="WAkmFwhDYBlKhz74opgl-32" style="edgeStyle=orthogonalEdgeStyle;rounded=0;orthogonalLoop=1;jettySize=auto;html=1;entryX=0;entryY=0.5;entryDx=0;entryDy=0;" parent="1" source="WAkmFwhDYBlKhz74opgl-33" target="WAkmFwhDYBlKhz74opgl-30" edge="1">
          <mxGeometry relative="1" as="geometry" />
        </mxCell>
        <mxCell id="WAkmFwhDYBlKhz74opgl-33" value="Contact Us" style="rounded=0;whiteSpace=wrap;html=1;" parent="1" vertex="1">
          <mxGeometry x="-3010" y="1970" width="120" height="60" as="geometry" />
        </mxCell>
        <mxCell id="WAkmFwhDYBlKhz74opgl-34" style="edgeStyle=orthogonalEdgeStyle;rounded=0;orthogonalLoop=1;jettySize=auto;html=1;" parent="1" source="WAkmFwhDYBlKhz74opgl-36" target="WAkmFwhDYBlKhz74opgl-38" edge="1">
          <mxGeometry relative="1" as="geometry">
            <mxPoint x="-3270" y="2100" as="targetPoint" />
          </mxGeometry>
        </mxCell>
        <mxCell id="WAkmFwhDYBlKhz74opgl-35" style="edgeStyle=orthogonalEdgeStyle;rounded=0;orthogonalLoop=1;jettySize=auto;html=1;" parent="1" source="WAkmFwhDYBlKhz74opgl-36" target="WAkmFwhDYBlKhz74opgl-41" edge="1">
          <mxGeometry relative="1" as="geometry" />
        </mxCell>
        <mxCell id="WAkmFwhDYBlKhz74opgl-36" value="UI With:" style="ellipse;whiteSpace=wrap;html=1;rounded=0;" parent="1" vertex="1">
          <mxGeometry x="-3210" y="2000" width="120" height="80" as="geometry" />
        </mxCell>
        <mxCell id="WAkmFwhDYBlKhz74opgl-37" style="edgeStyle=orthogonalEdgeStyle;rounded=0;orthogonalLoop=1;jettySize=auto;html=1;" parent="1" source="WAkmFwhDYBlKhz74opgl-38" target="WAkmFwhDYBlKhz74opgl-39" edge="1">
          <mxGeometry relative="1" as="geometry">
            <mxPoint x="-3310" y="2180" as="targetPoint" />
          </mxGeometry>
        </mxCell>
        <mxCell id="WAkmFwhDYBlKhz74opgl-38" value="Bootstrap" style="rounded=0;whiteSpace=wrap;html=1;" parent="1" vertex="1">
          <mxGeometry x="-3370" y="2090" width="120" height="60" as="geometry" />
        </mxCell>
        <mxCell id="WAkmFwhDYBlKhz74opgl-39" value="SASS For Customize" style="ellipse;whiteSpace=wrap;html=1;fillColor=#f8cecc;strokeColor=#b85450;" parent="1" vertex="1">
          <mxGeometry x="-3370" y="2190" width="120" height="80" as="geometry" />
        </mxCell>
        <mxCell id="WAkmFwhDYBlKhz74opgl-40" style="edgeStyle=orthogonalEdgeStyle;rounded=0;orthogonalLoop=1;jettySize=auto;html=1;" parent="1" source="WAkmFwhDYBlKhz74opgl-41" target="WAkmFwhDYBlKhz74opgl-42" edge="1">
          <mxGeometry relative="1" as="geometry">
            <mxPoint x="-2980" y="2200" as="targetPoint" />
          </mxGeometry>
        </mxCell>
        <mxCell id="WAkmFwhDYBlKhz74opgl-41" value="With FireBase" style="ellipse;whiteSpace=wrap;html=1;fillColor=#f8cecc;strokeColor=#b85450;" parent="1" vertex="1">
          <mxGeometry x="-3160" y="2160" width="120" height="80" as="geometry" />
        </mxCell>
        <mxCell id="WAkmFwhDYBlKhz74opgl-42" value="Or JSON" style="ellipse;whiteSpace=wrap;html=1;" parent="1" vertex="1">
          <mxGeometry x="-2990" y="2160" width="120" height="80" as="geometry" />
        </mxCell>
        <mxCell id="WAkmFwhDYBlKhz74opgl-43" style="edgeStyle=orthogonalEdgeStyle;rounded=0;orthogonalLoop=1;jettySize=auto;html=1;fillColor=#1ba1e2;strokeColor=#006EAF;" parent="1" source="WAkmFwhDYBlKhz74opgl-44" target="WAkmFwhDYBlKhz74opgl-46" edge="1">
          <mxGeometry relative="1" as="geometry">
            <mxPoint x="-1790" y="200.5" as="targetPoint" />
          </mxGeometry>
        </mxCell>
        <mxCell id="WAkmFwhDYBlKhz74opgl-44" value="Dependencies" style="rounded=0;whiteSpace=wrap;html=1;fillColor=#1ba1e2;fontColor=#ffffff;strokeColor=#006EAF;" parent="1" vertex="1">
          <mxGeometry x="-1850" y="90.5" width="120" height="60" as="geometry" />
        </mxCell>
        <mxCell id="WAkmFwhDYBlKhz74opgl-45" style="edgeStyle=orthogonalEdgeStyle;rounded=0;orthogonalLoop=1;jettySize=auto;html=1;fillColor=#1ba1e2;strokeColor=#006EAF;" parent="1" source="WAkmFwhDYBlKhz74opgl-46" target="WAkmFwhDYBlKhz74opgl-48" edge="1">
          <mxGeometry relative="1" as="geometry">
            <mxPoint x="-1790" y="270.5" as="targetPoint" />
          </mxGeometry>
        </mxCell>
        <mxCell id="WAkmFwhDYBlKhz74opgl-46" value="Bootstrap@5.3.3" style="rounded=0;whiteSpace=wrap;html=1;fillColor=#1ba1e2;fontColor=#ffffff;strokeColor=#006EAF;" parent="1" vertex="1">
          <mxGeometry x="-1850" y="170.5" width="120" height="60" as="geometry" />
        </mxCell>
        <mxCell id="WAkmFwhDYBlKhz74opgl-47" style="edgeStyle=orthogonalEdgeStyle;rounded=0;orthogonalLoop=1;jettySize=auto;html=1;fillColor=#1ba1e2;strokeColor=#006EAF;" parent="1" source="WAkmFwhDYBlKhz74opgl-48" target="WAkmFwhDYBlKhz74opgl-50" edge="1">
          <mxGeometry relative="1" as="geometry">
            <mxPoint x="-1790" y="350.5" as="targetPoint" />
          </mxGeometry>
        </mxCell>
        <mxCell id="WAkmFwhDYBlKhz74opgl-48" value="React-icons@5.2.1" style="rounded=0;whiteSpace=wrap;html=1;fillColor=#1ba1e2;fontColor=#ffffff;strokeColor=#006EAF;" parent="1" vertex="1">
          <mxGeometry x="-1850" y="260.5" width="120" height="60" as="geometry" />
        </mxCell>
        <mxCell id="WAkmFwhDYBlKhz74opgl-49" style="edgeStyle=orthogonalEdgeStyle;rounded=0;orthogonalLoop=1;jettySize=auto;html=1;fillColor=#1ba1e2;strokeColor=#006EAF;" parent="1" source="WAkmFwhDYBlKhz74opgl-50" target="WAkmFwhDYBlKhz74opgl-51" edge="1">
          <mxGeometry relative="1" as="geometry">
            <mxPoint x="-1790" y="440.5" as="targetPoint" />
          </mxGeometry>
        </mxCell>
        <mxCell id="WAkmFwhDYBlKhz74opgl-50" value="React-router-dom@6.23.1" style="rounded=0;whiteSpace=wrap;html=1;fillColor=#1ba1e2;fontColor=#ffffff;strokeColor=#006EAF;" parent="1" vertex="1">
          <mxGeometry x="-1850" y="340.5" width="120" height="60" as="geometry" />
        </mxCell>
        <mxCell id="WAkmFwhDYBlKhz74opgl-51" value="React-helmet-async@2.0.5" style="rounded=0;whiteSpace=wrap;html=1;fillColor=#1ba1e2;fontColor=#ffffff;strokeColor=#006EAF;" parent="1" vertex="1">
          <mxGeometry x="-1850" y="430.5" width="120" height="60" as="geometry" />
        </mxCell>
        <mxCell id="WAkmFwhDYBlKhz74opgl-79" value="Start" style="rounded=0;whiteSpace=wrap;html=1;" parent="1" vertex="1">
          <mxGeometry x="-2180" y="99.5" width="120" height="60" as="geometry" />
        </mxCell>
        <mxCell id="D5FOLxycE-m-Bip8Cx6Z-1" style="edgeStyle=orthogonalEdgeStyle;rounded=0;orthogonalLoop=1;jettySize=auto;html=1;" parent="1" source="WAkmFwhDYBlKhz74opgl-80" target="D5FOLxycE-m-Bip8Cx6Z-2" edge="1">
          <mxGeometry relative="1" as="geometry">
            <mxPoint x="-3590" y="389.5" as="targetPoint" />
          </mxGeometry>
        </mxCell>
        <mxCell id="WAkmFwhDYBlKhz74opgl-80" value="Footer" style="rounded=0;whiteSpace=wrap;html=1;" parent="1" vertex="1">
          <mxGeometry x="-3510" y="359.5" width="120" height="60" as="geometry" />
        </mxCell>
        <mxCell id="WAkmFwhDYBlKhz74opgl-81" style="edgeStyle=none;curved=1;rounded=0;orthogonalLoop=1;jettySize=auto;html=1;fontSize=12;startSize=8;endSize=8;" parent="1" source="WAkmFwhDYBlKhz74opgl-82" target="WAkmFwhDYBlKhz74opgl-87" edge="1">
          <mxGeometry relative="1" as="geometry">
            <mxPoint x="-2460" y="189.5" as="targetPoint" />
          </mxGeometry>
        </mxCell>
        <mxCell id="WAkmFwhDYBlKhz74opgl-82" value="Manu" style="rounded=0;whiteSpace=wrap;html=1;" parent="1" vertex="1">
          <mxGeometry x="-2520" y="99.5" width="120" height="60" as="geometry" />
        </mxCell>
        <mxCell id="WAkmFwhDYBlKhz74opgl-83" value="Contact Us" style="rounded=0;whiteSpace=wrap;html=1;" parent="1" vertex="1">
          <mxGeometry x="-2700" y="99.5" width="120" height="60" as="geometry" />
        </mxCell>
        <mxCell id="WAkmFwhDYBlKhz74opgl-85" value="Reservation" style="rounded=0;whiteSpace=wrap;html=1;" parent="1" vertex="1">
          <mxGeometry x="-3060" y="99.5" width="120" height="60" as="geometry" />
        </mxCell>
        <mxCell id="WAkmFwhDYBlKhz74opgl-86" value="Gallery" style="rounded=0;whiteSpace=wrap;html=1;" parent="1" vertex="1">
          <mxGeometry x="-2880" y="99.5" width="120" height="60" as="geometry" />
        </mxCell>
        <mxCell id="WAkmFwhDYBlKhz74opgl-87" value="First Look" style="rounded=0;whiteSpace=wrap;html=1;fillColor=#d5e8d4;strokeColor=#82b366;" parent="1" vertex="1">
          <mxGeometry x="-2520" y="199.5" width="120" height="60" as="geometry" />
        </mxCell>
        <mxCell id="WAkmFwhDYBlKhz74opgl-88" style="edgeStyle=none;curved=1;rounded=0;orthogonalLoop=1;jettySize=auto;html=1;fontSize=12;startSize=8;endSize=8;" parent="1" source="WAkmFwhDYBlKhz74opgl-89" target="WAkmFwhDYBlKhz74opgl-111" edge="1">
          <mxGeometry relative="1" as="geometry" />
        </mxCell>
        <mxCell id="WAkmFwhDYBlKhz74opgl-89" value="Main Page" style="rounded=0;whiteSpace=wrap;html=1;" parent="1" vertex="1">
          <mxGeometry x="-2140" y="359.5" width="120" height="60" as="geometry" />
        </mxCell>
        <mxCell id="WAkmFwhDYBlKhz74opgl-90" style="edgeStyle=none;curved=1;rounded=0;orthogonalLoop=1;jettySize=auto;html=1;entryX=0.5;entryY=1;entryDx=0;entryDy=0;fontSize=12;startSize=8;endSize=8;" parent="1" source="WAkmFwhDYBlKhz74opgl-92" target="WAkmFwhDYBlKhz74opgl-87" edge="1">
          <mxGeometry relative="1" as="geometry" />
        </mxCell>
        <mxCell id="WAkmFwhDYBlKhz74opgl-91" value="" style="edgeStyle=none;curved=1;rounded=0;orthogonalLoop=1;jettySize=auto;html=1;fontSize=12;startSize=8;endSize=8;" parent="1" source="WAkmFwhDYBlKhz74opgl-92" target="WAkmFwhDYBlKhz74opgl-96" edge="1">
          <mxGeometry relative="1" as="geometry" />
        </mxCell>
        <mxCell id="WAkmFwhDYBlKhz74opgl-92" value="Slider" style="rounded=0;whiteSpace=wrap;html=1;fillColor=#d5e8d4;strokeColor=#82b366;" parent="1" vertex="1">
          <mxGeometry x="-2520" y="359.5" width="120" height="60" as="geometry" />
        </mxCell>
        <mxCell id="WAkmFwhDYBlKhz74opgl-93" value="SECTIONS OF MENU&amp;nbsp;" style="text;html=1;align=center;verticalAlign=middle;resizable=0;points=[];autosize=1;strokeColor=none;fillColor=none;fontSize=16;" parent="1" vertex="1">
          <mxGeometry x="-2555" y="299.5" width="190" height="30" as="geometry" />
        </mxCell>
        <mxCell id="WAkmFwhDYBlKhz74opgl-94" style="edgeStyle=none;curved=1;rounded=0;orthogonalLoop=1;jettySize=auto;html=1;fontSize=12;startSize=8;endSize=8;" parent="1" source="WAkmFwhDYBlKhz74opgl-96" edge="1">
          <mxGeometry relative="1" as="geometry">
            <mxPoint x="-2660" y="459.5" as="targetPoint" />
          </mxGeometry>
        </mxCell>
        <mxCell id="WAkmFwhDYBlKhz74opgl-95" value="" style="edgeStyle=none;curved=1;rounded=0;orthogonalLoop=1;jettySize=auto;html=1;fontSize=12;startSize=8;endSize=8;" parent="1" source="WAkmFwhDYBlKhz74opgl-96" target="WAkmFwhDYBlKhz74opgl-99" edge="1">
          <mxGeometry relative="1" as="geometry" />
        </mxCell>
        <mxCell id="WAkmFwhDYBlKhz74opgl-96" value="Working Time" style="rounded=0;whiteSpace=wrap;html=1;fillColor=#d5e8d4;strokeColor=#82b366;" parent="1" vertex="1">
          <mxGeometry x="-2720" y="359.5" width="120" height="60" as="geometry" />
        </mxCell>
        <mxCell id="WAkmFwhDYBlKhz74opgl-97" value="Only A Stateless Component" style="text;html=1;align=center;verticalAlign=middle;resizable=0;points=[];autosize=1;strokeColor=none;fillColor=none;fontSize=16;" parent="1" vertex="1">
          <mxGeometry x="-2781" y="460.5" width="230" height="30" as="geometry" />
        </mxCell>
        <mxCell id="WAkmFwhDYBlKhz74opgl-98" style="edgeStyle=none;curved=1;rounded=0;orthogonalLoop=1;jettySize=auto;html=1;fontSize=12;startSize=8;endSize=8;" parent="1" source="WAkmFwhDYBlKhz74opgl-99" target="WAkmFwhDYBlKhz74opgl-106" edge="1">
          <mxGeometry relative="1" as="geometry">
            <mxPoint x="-3050" y="389.5" as="targetPoint" />
          </mxGeometry>
        </mxCell>
        <mxCell id="WAkmFwhDYBlKhz74opgl-99" value="Reservation UI" style="rounded=0;whiteSpace=wrap;html=1;fillColor=#d5e8d4;strokeColor=#82b366;" parent="1" vertex="1">
          <mxGeometry x="-2980" y="359.5" width="120" height="60" as="geometry" />
        </mxCell>
        <mxCell id="WAkmFwhDYBlKhz74opgl-100" style="edgeStyle=none;curved=1;rounded=0;orthogonalLoop=1;jettySize=auto;html=1;entryX=0.428;entryY=0.03;entryDx=0;entryDy=0;entryPerimeter=0;fontSize=12;startSize=8;endSize=8;" parent="1" source="WAkmFwhDYBlKhz74opgl-83" target="WAkmFwhDYBlKhz74opgl-99" edge="1">
          <mxGeometry relative="1" as="geometry">
            <Array as="points">
              <mxPoint x="-2600" y="339.5" />
              <mxPoint x="-2890" y="269.5" />
            </Array>
          </mxGeometry>
        </mxCell>
        <mxCell id="WAkmFwhDYBlKhz74opgl-101" value="A Component Full With A Form" style="text;html=1;align=center;verticalAlign=middle;resizable=0;points=[];autosize=1;strokeColor=none;fillColor=none;fontSize=16;" parent="1" vertex="1">
          <mxGeometry x="-2890" y="249.5" width="240" height="30" as="geometry" />
        </mxCell>
        <mxCell id="WAkmFwhDYBlKhz74opgl-105" style="edgeStyle=none;curved=1;rounded=0;orthogonalLoop=1;jettySize=auto;html=1;fontSize=12;startSize=8;endSize=8;" parent="1" source="WAkmFwhDYBlKhz74opgl-106" target="WAkmFwhDYBlKhz74opgl-80" edge="1">
          <mxGeometry relative="1" as="geometry" />
        </mxCell>
        <mxCell id="cfRxUK89OJyFdIY1MbNN-2" value="" style="edgeStyle=orthogonalEdgeStyle;rounded=0;orthogonalLoop=1;jettySize=auto;html=1;" parent="1" source="WAkmFwhDYBlKhz74opgl-106" target="cfRxUK89OJyFdIY1MbNN-1" edge="1">
          <mxGeometry relative="1" as="geometry" />
        </mxCell>
        <mxCell id="WAkmFwhDYBlKhz74opgl-106" value="Gallery" style="rounded=0;whiteSpace=wrap;html=1;fillColor=#d5e8d4;strokeColor=#82b366;" parent="1" vertex="1">
          <mxGeometry x="-3230" y="359.5" width="120" height="60" as="geometry" />
        </mxCell>
        <mxCell id="WAkmFwhDYBlKhz74opgl-107" style="edgeStyle=none;curved=1;rounded=0;orthogonalLoop=1;jettySize=auto;html=1;entryX=0.39;entryY=-0.042;entryDx=0;entryDy=0;entryPerimeter=0;fontSize=12;startSize=8;endSize=8;" parent="1" source="WAkmFwhDYBlKhz74opgl-86" target="WAkmFwhDYBlKhz74opgl-106" edge="1">
          <mxGeometry relative="1" as="geometry">
            <Array as="points">
              <mxPoint x="-2930" y="259.5" />
              <mxPoint x="-3020" y="209.5" />
              <mxPoint x="-3180" y="249.5" />
            </Array>
          </mxGeometry>
        </mxCell>
        <mxCell id="WAkmFwhDYBlKhz74opgl-108" style="edgeStyle=none;curved=1;rounded=0;orthogonalLoop=1;jettySize=auto;html=1;entryX=0.558;entryY=0.03;entryDx=0;entryDy=0;entryPerimeter=0;fontSize=12;startSize=8;endSize=8;" parent="1" source="WAkmFwhDYBlKhz74opgl-79" target="WAkmFwhDYBlKhz74opgl-89" edge="1">
          <mxGeometry relative="1" as="geometry">
            <Array as="points">
              <mxPoint x="-2060" y="289.5" />
            </Array>
          </mxGeometry>
        </mxCell>
        <mxCell id="WAkmFwhDYBlKhz74opgl-109" style="edgeStyle=none;curved=1;rounded=0;orthogonalLoop=1;jettySize=auto;html=1;fontSize=12;startSize=8;endSize=8;" parent="1" source="WAkmFwhDYBlKhz74opgl-111" target="WAkmFwhDYBlKhz74opgl-92" edge="1">
          <mxGeometry relative="1" as="geometry" />
        </mxCell>
        <mxCell id="WAkmFwhDYBlKhz74opgl-110" style="edgeStyle=none;curved=1;rounded=0;orthogonalLoop=1;jettySize=auto;html=1;fontSize=12;startSize=8;endSize=8;" parent="1" source="WAkmFwhDYBlKhz74opgl-111" target="WAkmFwhDYBlKhz74opgl-113" edge="1">
          <mxGeometry relative="1" as="geometry">
            <mxPoint x="-2270" y="529.5" as="targetPoint" />
          </mxGeometry>
        </mxCell>
        <mxCell id="WAkmFwhDYBlKhz74opgl-111" value="NavBar" style="rounded=0;whiteSpace=wrap;html=1;" parent="1" vertex="1">
          <mxGeometry x="-2330" y="359.5" width="120" height="60" as="geometry" />
        </mxCell>
        <mxCell id="WAkmFwhDYBlKhz74opgl-112" style="edgeStyle=none;curved=1;rounded=0;orthogonalLoop=1;jettySize=auto;html=1;fontSize=12;startSize=8;endSize=8;" parent="1" source="WAkmFwhDYBlKhz74opgl-113" target="WAkmFwhDYBlKhz74opgl-116" edge="1">
          <mxGeometry relative="1" as="geometry">
            <mxPoint x="-2270" y="639.5" as="targetPoint" />
          </mxGeometry>
        </mxCell>
        <mxCell id="WAkmFwhDYBlKhz74opgl-113" value="How It&#39;s Work" style="rounded=0;whiteSpace=wrap;html=1;" parent="1" vertex="1">
          <mxGeometry x="-2330" y="499.5" width="120" height="60" as="geometry" />
        </mxCell>
        <mxCell id="WAkmFwhDYBlKhz74opgl-114" style="edgeStyle=none;curved=1;rounded=0;orthogonalLoop=1;jettySize=auto;html=1;entryX=0.5;entryY=0;entryDx=0;entryDy=0;fontSize=12;startSize=8;endSize=8;" parent="1" source="WAkmFwhDYBlKhz74opgl-116" target="WAkmFwhDYBlKhz74opgl-119" edge="1">
          <mxGeometry relative="1" as="geometry">
            <Array as="points">
              <mxPoint x="-2150" y="649.5" />
            </Array>
          </mxGeometry>
        </mxCell>
        <mxCell id="WAkmFwhDYBlKhz74opgl-115" style="edgeStyle=none;curved=1;rounded=0;orthogonalLoop=1;jettySize=auto;html=1;entryX=0.5;entryY=0;entryDx=0;entryDy=0;fontSize=12;startSize=8;endSize=8;" parent="1" source="WAkmFwhDYBlKhz74opgl-116" target="WAkmFwhDYBlKhz74opgl-118" edge="1">
          <mxGeometry relative="1" as="geometry">
            <Array as="points">
              <mxPoint x="-2410" y="639.5" />
            </Array>
          </mxGeometry>
        </mxCell>
        <mxCell id="WAkmFwhDYBlKhz74opgl-116" value="Grid System" style="rounded=0;whiteSpace=wrap;html=1;fillColor=#d5e8d4;strokeColor=#82b366;" parent="1" vertex="1">
          <mxGeometry x="-2330" y="609.5" width="120" height="60" as="geometry" />
        </mxCell>
        <mxCell id="WAkmFwhDYBlKhz74opgl-117" style="edgeStyle=none;curved=1;rounded=0;orthogonalLoop=1;jettySize=auto;html=1;fontSize=12;startSize=8;endSize=8;" parent="1" source="WAkmFwhDYBlKhz74opgl-118" target="WAkmFwhDYBlKhz74opgl-120" edge="1">
          <mxGeometry relative="1" as="geometry">
            <Array as="points">
              <mxPoint x="-2410" y="799.5" />
            </Array>
          </mxGeometry>
        </mxCell>
        <mxCell id="WAkmFwhDYBlKhz74opgl-118" value="Navbar system" style="rounded=0;whiteSpace=wrap;html=1;fillColor=#d5e8d4;strokeColor=#82b366;" parent="1" vertex="1">
          <mxGeometry x="-2470" y="709.5" width="120" height="60" as="geometry" />
        </mxCell>
        <mxCell id="WAkmFwhDYBlKhz74opgl-119" value="Lists System" style="rounded=0;whiteSpace=wrap;html=1;" parent="1" vertex="1">
          <mxGeometry x="-2210" y="719.5" width="120" height="60" as="geometry" />
        </mxCell>
        <mxCell id="WAkmFwhDYBlKhz74opgl-120" value="Navbar OffCanvas" style="rounded=0;whiteSpace=wrap;html=1;fillColor=#d5e8d4;strokeColor=#82b366;" parent="1" vertex="1">
          <mxGeometry x="-2490" y="829.5" width="120" height="60" as="geometry" />
        </mxCell>
        <mxCell id="K-9rBzDbww7UCdtsAtUT-1" value="Online The Project" style="rounded=0;whiteSpace=wrap;html=1;" parent="1" vertex="1">
          <mxGeometry x="930" y="1920" width="120" height="60" as="geometry" />
        </mxCell>
        <mxCell id="cfRxUK89OJyFdIY1MbNN-1" value="With Cards inside" style="rounded=0;whiteSpace=wrap;html=1;fillColor=#d5e8d4;strokeColor=#82b366;" parent="1" vertex="1">
          <mxGeometry x="-3230" y="499.5" width="120" height="60" as="geometry" />
        </mxCell>
        <mxCell id="D5FOLxycE-m-Bip8Cx6Z-2" value="End Basic UI" style="rounded=1;whiteSpace=wrap;html=1;" parent="1" vertex="1">
          <mxGeometry x="-3700" y="359.5" width="120" height="60" as="geometry" />
        </mxCell>
        <mxCell id="D5FOLxycE-m-Bip8Cx6Z-5" value="" style="edgeStyle=orthogonalEdgeStyle;rounded=0;orthogonalLoop=1;jettySize=auto;html=1;" parent="1" source="D5FOLxycE-m-Bip8Cx6Z-3" target="D5FOLxycE-m-Bip8Cx6Z-4" edge="1">
          <mxGeometry relative="1" as="geometry" />
        </mxCell>
        <mxCell id="D5FOLxycE-m-Bip8Cx6Z-3" value="Start Logic" style="rounded=1;whiteSpace=wrap;html=1;" parent="1" vertex="1">
          <mxGeometry x="-1940" y="950" width="120" height="60" as="geometry" />
        </mxCell>
        <mxCell id="D5FOLxycE-m-Bip8Cx6Z-8" value="" style="edgeStyle=orthogonalEdgeStyle;rounded=0;orthogonalLoop=1;jettySize=auto;html=1;" parent="1" source="D5FOLxycE-m-Bip8Cx6Z-4" target="D5FOLxycE-m-Bip8Cx6Z-7" edge="1">
          <mxGeometry relative="1" as="geometry" />
        </mxCell>
        <mxCell id="D5FOLxycE-m-Bip8Cx6Z-4" value="Implementation&lt;div&gt;Routing&lt;/div&gt;" style="whiteSpace=wrap;html=1;rounded=1;" parent="1" vertex="1">
          <mxGeometry x="-1940" y="1090" width="120" height="60" as="geometry" />
        </mxCell>
        <mxCell id="D5FOLxycE-m-Bip8Cx6Z-11" value="" style="edgeStyle=orthogonalEdgeStyle;rounded=0;orthogonalLoop=1;jettySize=auto;html=1;" parent="1" source="D5FOLxycE-m-Bip8Cx6Z-7" target="D5FOLxycE-m-Bip8Cx6Z-10" edge="1">
          <mxGeometry relative="1" as="geometry" />
        </mxCell>
        <mxCell id="D5FOLxycE-m-Bip8Cx6Z-7" value="Splitting Components" style="whiteSpace=wrap;html=1;rounded=1;" parent="1" vertex="1">
          <mxGeometry x="-2140" y="1090" width="120" height="60" as="geometry" />
        </mxCell>
        <mxCell id="D5FOLxycE-m-Bip8Cx6Z-10" value="Implementation&lt;div&gt;Context&lt;/div&gt;" style="whiteSpace=wrap;html=1;rounded=1;" parent="1" vertex="1">
          <mxGeometry x="-2340" y="1090" width="120" height="60" as="geometry" />
        </mxCell>
        <mxCell id="BdbDkMUWxIickjyTrgPw-3" style="edgeStyle=orthogonalEdgeStyle;rounded=0;orthogonalLoop=1;jettySize=auto;html=1;" edge="1" parent="1" source="BdbDkMUWxIickjyTrgPw-2" target="BdbDkMUWxIickjyTrgPw-4">
          <mxGeometry relative="1" as="geometry">
            <mxPoint x="2390" y="1150" as="targetPoint" />
          </mxGeometry>
        </mxCell>
        <mxCell id="BdbDkMUWxIickjyTrgPw-2" value="مقدماتی&amp;nbsp;" style="rounded=0;whiteSpace=wrap;html=1;" vertex="1" parent="1">
          <mxGeometry x="2330" y="1030" width="120" height="60" as="geometry" />
        </mxCell>
        <mxCell id="BdbDkMUWxIickjyTrgPw-5" style="edgeStyle=orthogonalEdgeStyle;rounded=0;orthogonalLoop=1;jettySize=auto;html=1;" edge="1" parent="1" source="BdbDkMUWxIickjyTrgPw-4" target="BdbDkMUWxIickjyTrgPw-6">
          <mxGeometry relative="1" as="geometry">
            <mxPoint x="2390" y="1240" as="targetPoint" />
          </mxGeometry>
        </mxCell>
        <mxCell id="BdbDkMUWxIickjyTrgPw-4" value="ساختار پروژه" style="rounded=1;whiteSpace=wrap;html=1;" vertex="1" parent="1">
          <mxGeometry x="2330" y="1120" width="120" height="60" as="geometry" />
        </mxCell>
        <mxCell id="BdbDkMUWxIickjyTrgPw-7" style="edgeStyle=orthogonalEdgeStyle;rounded=0;orthogonalLoop=1;jettySize=auto;html=1;" edge="1" parent="1" source="BdbDkMUWxIickjyTrgPw-6" target="BdbDkMUWxIickjyTrgPw-8">
          <mxGeometry relative="1" as="geometry">
            <mxPoint x="2390" y="1340" as="targetPoint" />
          </mxGeometry>
        </mxCell>
        <mxCell id="BdbDkMUWxIickjyTrgPw-6" value="Browser Router&lt;div&gt;&amp;amp;&amp;nbsp;&lt;/div&gt;&lt;div&gt;Hash Router&lt;/div&gt;" style="rounded=1;whiteSpace=wrap;html=1;" vertex="1" parent="1">
          <mxGeometry x="2330" y="1210" width="120" height="60" as="geometry" />
        </mxCell>
        <mxCell id="BdbDkMUWxIickjyTrgPw-9" style="edgeStyle=orthogonalEdgeStyle;rounded=0;orthogonalLoop=1;jettySize=auto;html=1;" edge="1" parent="1" source="BdbDkMUWxIickjyTrgPw-8" target="BdbDkMUWxIickjyTrgPw-10">
          <mxGeometry relative="1" as="geometry">
            <mxPoint x="2390" y="1420" as="targetPoint" />
          </mxGeometry>
        </mxCell>
        <mxCell id="BdbDkMUWxIickjyTrgPw-8" value="Route&amp;amp;Routes&amp;amp;Switch" style="rounded=1;whiteSpace=wrap;html=1;" vertex="1" parent="1">
          <mxGeometry x="2310" y="1310" width="160" height="60" as="geometry" />
        </mxCell>
        <mxCell id="BdbDkMUWxIickjyTrgPw-11" style="edgeStyle=orthogonalEdgeStyle;rounded=0;orthogonalLoop=1;jettySize=auto;html=1;" edge="1" parent="1" source="BdbDkMUWxIickjyTrgPw-10" target="BdbDkMUWxIickjyTrgPw-12">
          <mxGeometry relative="1" as="geometry">
            <mxPoint x="2390" y="1490" as="targetPoint" />
          </mxGeometry>
        </mxCell>
        <mxCell id="BdbDkMUWxIickjyTrgPw-10" value="Link &amp;amp; NavLink" style="rounded=1;whiteSpace=wrap;html=1;" vertex="1" parent="1">
          <mxGeometry x="2330" y="1390" width="120" height="60" as="geometry" />
        </mxCell>
        <mxCell id="BdbDkMUWxIickjyTrgPw-13" style="edgeStyle=orthogonalEdgeStyle;rounded=0;orthogonalLoop=1;jettySize=auto;html=1;" edge="1" parent="1" source="BdbDkMUWxIickjyTrgPw-12" target="BdbDkMUWxIickjyTrgPw-14">
          <mxGeometry relative="1" as="geometry">
            <mxPoint x="2390" y="1590" as="targetPoint" />
          </mxGeometry>
        </mxCell>
        <mxCell id="BdbDkMUWxIickjyTrgPw-12" value="useNavigate&lt;div&gt;&amp;amp;&lt;/div&gt;&lt;div&gt;useHistory&lt;/div&gt;" style="rounded=1;whiteSpace=wrap;html=1;" vertex="1" parent="1">
          <mxGeometry x="2330" y="1470" width="120" height="60" as="geometry" />
        </mxCell>
        <mxCell id="BdbDkMUWxIickjyTrgPw-15" style="edgeStyle=orthogonalEdgeStyle;rounded=0;orthogonalLoop=1;jettySize=auto;html=1;" edge="1" parent="1" source="BdbDkMUWxIickjyTrgPw-14" target="BdbDkMUWxIickjyTrgPw-16">
          <mxGeometry relative="1" as="geometry">
            <mxPoint x="2390" y="1660" as="targetPoint" />
          </mxGeometry>
        </mxCell>
        <mxCell id="BdbDkMUWxIickjyTrgPw-14" value="URL Parameters" style="rounded=1;whiteSpace=wrap;html=1;" vertex="1" parent="1">
          <mxGeometry x="2330" y="1570" width="120" height="60" as="geometry" />
        </mxCell>
        <mxCell id="BdbDkMUWxIickjyTrgPw-16" value="useParams" style="rounded=1;whiteSpace=wrap;html=1;" vertex="1" parent="1">
          <mxGeometry x="2330" y="1670" width="120" height="60" as="geometry" />
        </mxCell>
        <mxCell id="BdbDkMUWxIickjyTrgPw-18" style="edgeStyle=orthogonalEdgeStyle;rounded=0;orthogonalLoop=1;jettySize=auto;html=1;" edge="1" parent="1" source="BdbDkMUWxIickjyTrgPw-17" target="BdbDkMUWxIickjyTrgPw-19">
          <mxGeometry relative="1" as="geometry">
            <mxPoint x="2170" y="1210" as="targetPoint" />
          </mxGeometry>
        </mxCell>
        <mxCell id="BdbDkMUWxIickjyTrgPw-17" value="سطح متوسط" style="rounded=0;whiteSpace=wrap;html=1;" vertex="1" parent="1">
          <mxGeometry x="2110" y="1030" width="120" height="60" as="geometry" />
        </mxCell>
        <mxCell id="BdbDkMUWxIickjyTrgPw-20" style="edgeStyle=orthogonalEdgeStyle;rounded=0;orthogonalLoop=1;jettySize=auto;html=1;" edge="1" parent="1" source="BdbDkMUWxIickjyTrgPw-19" target="BdbDkMUWxIickjyTrgPw-21">
          <mxGeometry relative="1" as="geometry">
            <mxPoint x="2170" y="1250" as="targetPoint" />
          </mxGeometry>
        </mxCell>
        <mxCell id="BdbDkMUWxIickjyTrgPw-19" value="Nested Routes" style="rounded=1;whiteSpace=wrap;html=1;" vertex="1" parent="1">
          <mxGeometry x="2110" y="1140" width="120" height="60" as="geometry" />
        </mxCell>
        <mxCell id="BdbDkMUWxIickjyTrgPw-22" style="edgeStyle=orthogonalEdgeStyle;rounded=0;orthogonalLoop=1;jettySize=auto;html=1;" edge="1" parent="1" source="BdbDkMUWxIickjyTrgPw-21" target="BdbDkMUWxIickjyTrgPw-23">
          <mxGeometry relative="1" as="geometry">
            <mxPoint x="2170" y="1330" as="targetPoint" />
          </mxGeometry>
        </mxCell>
        <mxCell id="BdbDkMUWxIickjyTrgPw-21" value="Outlet" style="rounded=1;whiteSpace=wrap;html=1;" vertex="1" parent="1">
          <mxGeometry x="2110" y="1230" width="120" height="60" as="geometry" />
        </mxCell>
        <mxCell id="BdbDkMUWxIickjyTrgPw-24" style="edgeStyle=orthogonalEdgeStyle;rounded=0;orthogonalLoop=1;jettySize=auto;html=1;" edge="1" parent="1" source="BdbDkMUWxIickjyTrgPw-23" target="BdbDkMUWxIickjyTrgPw-25">
          <mxGeometry relative="1" as="geometry">
            <mxPoint x="2170" y="1430" as="targetPoint" />
          </mxGeometry>
        </mxCell>
        <mxCell id="BdbDkMUWxIickjyTrgPw-23" value="Redirect &amp;amp; useNavigate" style="rounded=1;whiteSpace=wrap;html=1;" vertex="1" parent="1">
          <mxGeometry x="2110" y="1320" width="120" height="60" as="geometry" />
        </mxCell>
        <mxCell id="BdbDkMUWxIickjyTrgPw-26" style="edgeStyle=orthogonalEdgeStyle;rounded=0;orthogonalLoop=1;jettySize=auto;html=1;" edge="1" parent="1" source="BdbDkMUWxIickjyTrgPw-25" target="BdbDkMUWxIickjyTrgPw-27">
          <mxGeometry relative="1" as="geometry">
            <mxPoint x="2170" y="1500" as="targetPoint" />
          </mxGeometry>
        </mxCell>
        <mxCell id="BdbDkMUWxIickjyTrgPw-25" value="Private Routes" style="rounded=1;whiteSpace=wrap;html=1;" vertex="1" parent="1">
          <mxGeometry x="2110" y="1400" width="120" height="60" as="geometry" />
        </mxCell>
        <mxCell id="BdbDkMUWxIickjyTrgPw-28" style="edgeStyle=orthogonalEdgeStyle;rounded=0;orthogonalLoop=1;jettySize=auto;html=1;" edge="1" parent="1" source="BdbDkMUWxIickjyTrgPw-27" target="BdbDkMUWxIickjyTrgPw-29">
          <mxGeometry relative="1" as="geometry">
            <mxPoint x="2170" y="1600" as="targetPoint" />
          </mxGeometry>
        </mxCell>
        <mxCell id="BdbDkMUWxIickjyTrgPw-27" value="Conditional Routing" style="rounded=1;whiteSpace=wrap;html=1;" vertex="1" parent="1">
          <mxGeometry x="2110" y="1490" width="120" height="60" as="geometry" />
        </mxCell>
        <mxCell id="BdbDkMUWxIickjyTrgPw-30" style="edgeStyle=orthogonalEdgeStyle;rounded=0;orthogonalLoop=1;jettySize=auto;html=1;" edge="1" parent="1" source="BdbDkMUWxIickjyTrgPw-29" target="BdbDkMUWxIickjyTrgPw-31">
          <mxGeometry relative="1" as="geometry">
            <mxPoint x="2170" y="1670" as="targetPoint" />
          </mxGeometry>
        </mxCell>
        <mxCell id="BdbDkMUWxIickjyTrgPw-29" value="Data Fetching" style="rounded=1;whiteSpace=wrap;html=1;" vertex="1" parent="1">
          <mxGeometry x="2110" y="1580" width="120" height="60" as="geometry" />
        </mxCell>
        <mxCell id="BdbDkMUWxIickjyTrgPw-32" style="edgeStyle=orthogonalEdgeStyle;rounded=0;orthogonalLoop=1;jettySize=auto;html=1;" edge="1" parent="1" source="BdbDkMUWxIickjyTrgPw-31" target="BdbDkMUWxIickjyTrgPw-33">
          <mxGeometry relative="1" as="geometry">
            <mxPoint x="2170" y="1790" as="targetPoint" />
          </mxGeometry>
        </mxCell>
        <mxCell id="BdbDkMUWxIickjyTrgPw-31" value="useLoaderData" style="rounded=1;whiteSpace=wrap;html=1;" vertex="1" parent="1">
          <mxGeometry x="2110" y="1690" width="120" height="60" as="geometry" />
        </mxCell>
        <mxCell id="BdbDkMUWxIickjyTrgPw-34" style="edgeStyle=orthogonalEdgeStyle;rounded=0;orthogonalLoop=1;jettySize=auto;html=1;" edge="1" parent="1" source="BdbDkMUWxIickjyTrgPw-33" target="BdbDkMUWxIickjyTrgPw-35">
          <mxGeometry relative="1" as="geometry">
            <mxPoint x="2170" y="1870" as="targetPoint" />
          </mxGeometry>
        </mxCell>
        <mxCell id="BdbDkMUWxIickjyTrgPw-33" value="useLocation &amp;amp;&amp;nbsp;&lt;div&gt;useMatch&lt;/div&gt;" style="rounded=1;whiteSpace=wrap;html=1;" vertex="1" parent="1">
          <mxGeometry x="2110" y="1770" width="120" height="60" as="geometry" />
        </mxCell>
        <mxCell id="BdbDkMUWxIickjyTrgPw-37" style="edgeStyle=orthogonalEdgeStyle;rounded=0;orthogonalLoop=1;jettySize=auto;html=1;entryX=0.5;entryY=0;entryDx=0;entryDy=0;" edge="1" parent="1" source="BdbDkMUWxIickjyTrgPw-35" target="BdbDkMUWxIickjyTrgPw-36">
          <mxGeometry relative="1" as="geometry" />
        </mxCell>
        <mxCell id="BdbDkMUWxIickjyTrgPw-35" value="createBrowserHistory" style="rounded=1;whiteSpace=wrap;html=1;" vertex="1" parent="1">
          <mxGeometry x="2100" y="1870" width="140" height="60" as="geometry" />
        </mxCell>
        <mxCell id="BdbDkMUWxIickjyTrgPw-38" style="edgeStyle=orthogonalEdgeStyle;rounded=0;orthogonalLoop=1;jettySize=auto;html=1;" edge="1" parent="1" source="BdbDkMUWxIickjyTrgPw-36" target="BdbDkMUWxIickjyTrgPw-39">
          <mxGeometry relative="1" as="geometry">
            <mxPoint x="2170" y="2100" as="targetPoint" />
          </mxGeometry>
        </mxCell>
        <mxCell id="BdbDkMUWxIickjyTrgPw-36" value="createBrowserHistory" style="rounded=1;whiteSpace=wrap;html=1;" vertex="1" parent="1">
          <mxGeometry x="2100" y="1980" width="140" height="60" as="geometry" />
        </mxCell>
        <mxCell id="BdbDkMUWxIickjyTrgPw-39" value="createMemoryHistory" style="rounded=1;whiteSpace=wrap;html=1;" vertex="1" parent="1">
          <mxGeometry x="2110" y="2070" width="120" height="60" as="geometry" />
        </mxCell>
        <mxCell id="BdbDkMUWxIickjyTrgPw-41" style="edgeStyle=orthogonalEdgeStyle;rounded=0;orthogonalLoop=1;jettySize=auto;html=1;" edge="1" parent="1" source="BdbDkMUWxIickjyTrgPw-40" target="BdbDkMUWxIickjyTrgPw-42">
          <mxGeometry relative="1" as="geometry">
            <mxPoint x="1990" y="1160" as="targetPoint" />
          </mxGeometry>
        </mxCell>
        <mxCell id="BdbDkMUWxIickjyTrgPw-40" value="پیشرفته" style="rounded=0;whiteSpace=wrap;html=1;" vertex="1" parent="1">
          <mxGeometry x="1930" y="1030" width="120" height="60" as="geometry" />
        </mxCell>
        <mxCell id="BdbDkMUWxIickjyTrgPw-43" style="edgeStyle=orthogonalEdgeStyle;rounded=0;orthogonalLoop=1;jettySize=auto;html=1;" edge="1" parent="1" source="BdbDkMUWxIickjyTrgPw-42" target="BdbDkMUWxIickjyTrgPw-44">
          <mxGeometry relative="1" as="geometry">
            <mxPoint x="1990" y="1240" as="targetPoint" />
          </mxGeometry>
        </mxCell>
        <mxCell id="BdbDkMUWxIickjyTrgPw-42" value="Suspense" style="rounded=1;whiteSpace=wrap;html=1;" vertex="1" parent="1">
          <mxGeometry x="1930" y="1130" width="120" height="60" as="geometry" />
        </mxCell>
        <mxCell id="BdbDkMUWxIickjyTrgPw-45" style="edgeStyle=orthogonalEdgeStyle;rounded=0;orthogonalLoop=1;jettySize=auto;html=1;" edge="1" parent="1" source="BdbDkMUWxIickjyTrgPw-44" target="BdbDkMUWxIickjyTrgPw-46">
          <mxGeometry relative="1" as="geometry">
            <mxPoint x="1990" y="1310" as="targetPoint" />
          </mxGeometry>
        </mxCell>
        <mxCell id="BdbDkMUWxIickjyTrgPw-44" value="React.lazy" style="rounded=1;whiteSpace=wrap;html=1;" vertex="1" parent="1">
          <mxGeometry x="1930" y="1220" width="120" height="60" as="geometry" />
        </mxCell>
        <mxCell id="BdbDkMUWxIickjyTrgPw-47" style="edgeStyle=orthogonalEdgeStyle;rounded=0;orthogonalLoop=1;jettySize=auto;html=1;" edge="1" parent="1" source="BdbDkMUWxIickjyTrgPw-46" target="BdbDkMUWxIickjyTrgPw-48">
          <mxGeometry relative="1" as="geometry">
            <mxPoint x="1990" y="1420" as="targetPoint" />
          </mxGeometry>
        </mxCell>
        <mxCell id="BdbDkMUWxIickjyTrgPw-46" value="Code Splitting" style="rounded=1;whiteSpace=wrap;html=1;" vertex="1" parent="1">
          <mxGeometry x="1930" y="1320" width="120" height="60" as="geometry" />
        </mxCell>
        <mxCell id="BdbDkMUWxIickjyTrgPw-49" style="edgeStyle=orthogonalEdgeStyle;rounded=0;orthogonalLoop=1;jettySize=auto;html=1;" edge="1" parent="1" source="BdbDkMUWxIickjyTrgPw-48" target="BdbDkMUWxIickjyTrgPw-50">
          <mxGeometry relative="1" as="geometry">
            <mxPoint x="1990" y="1530" as="targetPoint" />
          </mxGeometry>
        </mxCell>
        <mxCell id="BdbDkMUWxIickjyTrgPw-48" value="Flexible Routing Patterns" style="rounded=1;whiteSpace=wrap;html=1;" vertex="1" parent="1">
          <mxGeometry x="1930" y="1420" width="120" height="60" as="geometry" />
        </mxCell>
        <mxCell id="BdbDkMUWxIickjyTrgPw-51" style="edgeStyle=orthogonalEdgeStyle;rounded=0;orthogonalLoop=1;jettySize=auto;html=1;" edge="1" parent="1" source="BdbDkMUWxIickjyTrgPw-50" target="BdbDkMUWxIickjyTrgPw-52">
          <mxGeometry relative="1" as="geometry">
            <mxPoint x="1990" y="1620" as="targetPoint" />
          </mxGeometry>
        </mxCell>
        <mxCell id="BdbDkMUWxIickjyTrgPw-50" value="matchPath &amp;amp;&amp;nbsp;&lt;div&gt;geratePath&lt;/div&gt;" style="rounded=1;whiteSpace=wrap;html=1;" vertex="1" parent="1">
          <mxGeometry x="1930" y="1500" width="120" height="60" as="geometry" />
        </mxCell>
        <mxCell id="BdbDkMUWxIickjyTrgPw-53" style="edgeStyle=orthogonalEdgeStyle;rounded=0;orthogonalLoop=1;jettySize=auto;html=1;" edge="1" parent="1" source="BdbDkMUWxIickjyTrgPw-52" target="BdbDkMUWxIickjyTrgPw-54">
          <mxGeometry relative="1" as="geometry">
            <mxPoint x="1990" y="1710" as="targetPoint" />
          </mxGeometry>
        </mxCell>
        <mxCell id="BdbDkMUWxIickjyTrgPw-52" value="useTransition" style="rounded=1;whiteSpace=wrap;html=1;" vertex="1" parent="1">
          <mxGeometry x="1930" y="1590" width="120" height="60" as="geometry" />
        </mxCell>
        <mxCell id="BdbDkMUWxIickjyTrgPw-54" value="react-transition-group" style="rounded=1;whiteSpace=wrap;html=1;" vertex="1" parent="1">
          <mxGeometry x="1930" y="1680" width="120" height="60" as="geometry" />
        </mxCell>
        <mxCell id="BdbDkMUWxIickjyTrgPw-58" style="edgeStyle=orthogonalEdgeStyle;rounded=0;orthogonalLoop=1;jettySize=auto;html=1;" edge="1" parent="1" source="BdbDkMUWxIickjyTrgPw-57" target="BdbDkMUWxIickjyTrgPw-59">
          <mxGeometry relative="1" as="geometry">
            <mxPoint x="1785" y="1140" as="targetPoint" />
          </mxGeometry>
        </mxCell>
        <mxCell id="BdbDkMUWxIickjyTrgPw-57" value="جانبی" style="rounded=0;whiteSpace=wrap;html=1;" vertex="1" parent="1">
          <mxGeometry x="1735" y="1030" width="120" height="60" as="geometry" />
        </mxCell>
        <mxCell id="BdbDkMUWxIickjyTrgPw-60" style="edgeStyle=orthogonalEdgeStyle;rounded=0;orthogonalLoop=1;jettySize=auto;html=1;" edge="1" parent="1" source="BdbDkMUWxIickjyTrgPw-59" target="BdbDkMUWxIickjyTrgPw-61">
          <mxGeometry relative="1" as="geometry">
            <mxPoint x="1795" y="1250" as="targetPoint" />
          </mxGeometry>
        </mxCell>
        <mxCell id="BdbDkMUWxIickjyTrgPw-59" value="react-router-config" style="rounded=1;whiteSpace=wrap;html=1;" vertex="1" parent="1">
          <mxGeometry x="1735" y="1140" width="120" height="60" as="geometry" />
        </mxCell>
        <mxCell id="BdbDkMUWxIickjyTrgPw-62" style="edgeStyle=orthogonalEdgeStyle;rounded=0;orthogonalLoop=1;jettySize=auto;html=1;" edge="1" parent="1" source="BdbDkMUWxIickjyTrgPw-61" target="BdbDkMUWxIickjyTrgPw-63">
          <mxGeometry relative="1" as="geometry">
            <mxPoint x="1795" y="1340" as="targetPoint" />
          </mxGeometry>
        </mxCell>
        <mxCell id="BdbDkMUWxIickjyTrgPw-61" value="connected-react-router" style="rounded=1;whiteSpace=wrap;html=1;" vertex="1" parent="1">
          <mxGeometry x="1720" y="1230" width="150" height="60" as="geometry" />
        </mxCell>
        <mxCell id="BdbDkMUWxIickjyTrgPw-63" value="react-router-bootstrap" style="rounded=1;whiteSpace=wrap;html=1;" vertex="1" parent="1">
          <mxGeometry x="1720" y="1330" width="150" height="60" as="geometry" />
        </mxCell>
      </root>
    </mxGraphModel>
  </diagram>
</mxfile>
